M48
; DRILL file {KiCad 7.0.10} date Mon Feb 19 23:02:24 2024
; FORMAT={-:-/ absolute / inch / decimal}
; #@! TF.CreationDate,2024-02-19T23:02:24+00:00
; #@! TF.GenerationSoftware,Kicad,Pcbnew,7.0.10
; #@! TF.FileFunction,Plated,1,2,PTH
FMAT,2
INCH
; #@! TA.AperFunction,Plated,PTH,ViaDrill
T1C0.0157
; #@! TA.AperFunction,Plated,PTH,ComponentDrill
T2C0.0236
; #@! TA.AperFunction,Plated,PTH,ComponentDrill
T3C0.0315
; #@! TA.AperFunction,Plated,PTH,ComponentDrill
T4C0.0394
; #@! TA.AperFunction,Plated,PTH,ComponentDrill
T5C0.1693
%
G90
G05
T1
X1.3189Y-2.3031
X1.5748Y-3.0118
X1.5748Y-3.3661
X1.5748Y-3.9567
X1.6929Y-1.1811
X3.3071Y-3.8583
X3.937Y-3.3858
X3.937Y-3.9567
X3.9567Y-1.2205
X4.0551Y-3.0709
X4.2913Y-2.3819
T2
X1.1511Y-3.2488
X1.1511Y-3.8393
X1.1883Y-3.159
X1.1883Y-3.3385
X1.1883Y-3.7495
X1.1883Y-3.9291
X1.2781Y-3.1218
X1.2781Y-3.3757
X1.2781Y-3.7123
X1.2781Y-3.9663
X1.3679Y-3.159
X1.3679Y-3.3385
X1.3679Y-3.7495
X1.3679Y-3.9291
X1.4051Y-3.2488
X1.4051Y-3.8393
X4.1039Y-3.2488
X4.1039Y-3.8393
X4.1411Y-3.159
X4.1411Y-3.3385
X4.1411Y-3.7495
X4.1411Y-3.9291
X4.2309Y-3.1218
X4.2309Y-3.3757
X4.2309Y-3.7123
X4.2309Y-3.9663
X4.3206Y-3.159
X4.3206Y-3.3385
X4.3206Y-3.7495
X4.3206Y-3.9291
X4.3578Y-3.2488
X4.3578Y-3.8393
T4
X3.4547Y-3.8661
X3.5531Y-3.8661
T5
X1.2781Y-3.2488
X1.2781Y-3.8393
X4.2309Y-3.2488
X4.2309Y-3.8393
T3
G00X1.7957Y-3.6322
M15
G01X1.8469Y-3.5436
M16
G05
G00X2.0556Y-3.505
M15
G01X1.9806Y-3.4617
M16
G05
G00X1.9974Y-3.7396
M15
G01X2.0407Y-3.6646
M16
G05
M30
