%TF.GenerationSoftware,KiCad,Pcbnew,7.0.8*%
%TF.CreationDate,2024-01-31T23:47:12+00:00*%
%TF.ProjectId,Milo_RingLight,4d696c6f-5f52-4696-9e67-4c696768742e,rev?*%
%TF.SameCoordinates,Original*%
%TF.FileFunction,Legend,Top*%
%TF.FilePolarity,Positive*%
%FSLAX46Y46*%
G04 Gerber Fmt 4.6, Leading zero omitted, Abs format (unit mm)*
G04 Created by KiCad (PCBNEW 7.0.8) date 2024-01-31 23:47:12*
%MOMM*%
%LPD*%
G01*
G04 APERTURE LIST*
%ADD10C,0.150000*%
%ADD11C,0.250000*%
%ADD12C,0.120000*%
G04 APERTURE END LIST*
D10*
X71028480Y-92128342D02*
X70889407Y-92061255D01*
X70805965Y-92021003D01*
X71028480Y-92128342D02*
X71028479Y-92647457D01*
X67635130Y-97154988D02*
X67635120Y-90444122D01*
X66327843Y-97154984D02*
X65771558Y-97154985D01*
X69470944Y-92647458D02*
X68970283Y-92647459D01*
X72363567Y-90444126D02*
X72363567Y-97154986D01*
X68176149Y-91262466D02*
X68341138Y-91338121D01*
X68477977Y-91405745D01*
X68637496Y-91485817D01*
X68807924Y-91572330D01*
X68977496Y-91659283D01*
X69134442Y-91740669D01*
X69303723Y-91830148D01*
X69415313Y-91894666D01*
X69470999Y-92433412D02*
X69470944Y-92647458D01*
X68970283Y-92647459D02*
X68970284Y-92128341D01*
X72697334Y-92711779D02*
X72697335Y-92128343D01*
X72697335Y-92128343D02*
X74226000Y-92836319D01*
X68163602Y-97154988D02*
X68163601Y-96970846D01*
X68163601Y-96786705D01*
X68163600Y-96602564D01*
X68163600Y-96418423D01*
X68163600Y-96234282D01*
X68163600Y-96050141D01*
X68163600Y-95866000D01*
X68163600Y-95681859D01*
X68163599Y-95497718D01*
X68163599Y-95313576D01*
X68163599Y-95129435D01*
X68163599Y-94945294D01*
X68163599Y-94761153D01*
X68163598Y-94577011D01*
X68163598Y-94392870D01*
X68163598Y-94208729D01*
X74226985Y-97154980D02*
X73670840Y-97154980D01*
X67635130Y-97154988D02*
X67635120Y-90444122D01*
X68163602Y-97154988D02*
X67635130Y-97154988D01*
X71056286Y-97154982D02*
X68970214Y-97154981D01*
X70500002Y-96752075D02*
X70500000Y-93000000D01*
X71835096Y-94208729D02*
X71835079Y-94057707D01*
X71834950Y-93761597D01*
X71834698Y-93474658D01*
X71834330Y-93198401D01*
X71833853Y-92934336D01*
X71833272Y-92683974D01*
X71832594Y-92448825D01*
X71831826Y-92230400D01*
X71830974Y-92030209D01*
X71830044Y-91849763D01*
X71829043Y-91690572D01*
X71827422Y-91494944D01*
X71825071Y-91322599D01*
X71822551Y-91262466D01*
X68970214Y-93000001D02*
X69526500Y-93000001D01*
X69470999Y-92433412D02*
X69470944Y-92647458D01*
X71056286Y-93000001D02*
X71056286Y-97154982D01*
X68970214Y-97154981D02*
X68970214Y-93000001D01*
X68970214Y-93000001D02*
X69526500Y-93000001D01*
X71835096Y-94208729D02*
X71835079Y-94057707D01*
X71834950Y-93761597D01*
X71834698Y-93474658D01*
X71834330Y-93198401D01*
X71833853Y-92934336D01*
X71833272Y-92683974D01*
X71832594Y-92448825D01*
X71831826Y-92230400D01*
X71830974Y-92030209D01*
X71830044Y-91849763D01*
X71829043Y-91690572D01*
X71827422Y-91494944D01*
X71825071Y-91322599D01*
X71822551Y-91262466D01*
X67301347Y-92711780D02*
X66327843Y-93111231D01*
X74226000Y-92836319D02*
X74226985Y-97154980D01*
X72697334Y-92711779D02*
X72697335Y-92128343D01*
X67301347Y-92711780D02*
X67301346Y-92560917D01*
X67301345Y-92427803D01*
X67635120Y-90444122D02*
X69999345Y-91619652D01*
X70527822Y-92647456D02*
X70527822Y-92433411D01*
X67301345Y-92427803D02*
X67298481Y-92269312D01*
X67284640Y-92143822D01*
X70500000Y-93000000D02*
X71056286Y-93000001D01*
X71028480Y-92128342D02*
X70889407Y-92061255D01*
X70805965Y-92021003D01*
X67301347Y-92711780D02*
X66327843Y-93111231D01*
X69470944Y-92647458D02*
X68970283Y-92647459D01*
X69192802Y-92021005D02*
X69334129Y-91948476D01*
X69415313Y-91894666D01*
X71835094Y-97154985D02*
X71835094Y-96970843D01*
X71835094Y-96786702D01*
X71835094Y-96602561D01*
X71835095Y-96418420D01*
X71835095Y-96234278D01*
X71835095Y-96050137D01*
X71835095Y-95865996D01*
X71835095Y-95681855D01*
X71835095Y-95497714D01*
X71835095Y-95313573D01*
X71835095Y-95129433D01*
X71835095Y-94945292D01*
X71835095Y-94761151D01*
X71835095Y-94577010D01*
X71835095Y-94392869D01*
X71835096Y-94208729D01*
X67301345Y-92427803D02*
X67298481Y-92269312D01*
X67284640Y-92143822D01*
X65771558Y-97154985D02*
X65772689Y-92836313D01*
X74226000Y-92836319D02*
X74226985Y-97154980D01*
X68970283Y-92647459D02*
X68970284Y-92128341D01*
X67301347Y-92711780D02*
X67301346Y-92560917D01*
X67301345Y-92427803D01*
X72697335Y-92128343D02*
X74226000Y-92836319D01*
X69526500Y-93000001D02*
X69526496Y-96752076D01*
X72363567Y-97154986D02*
X71835094Y-97154985D01*
X71028479Y-92647457D02*
X70527822Y-92647456D01*
X70500000Y-93000000D02*
X71056286Y-93000001D01*
X68970284Y-92128341D02*
X69109356Y-92061254D01*
X69192802Y-92021005D01*
X66327843Y-93111231D02*
X66327843Y-97154984D01*
X69999409Y-92166712D02*
X69470999Y-92433412D01*
X70805965Y-92021003D02*
X70664635Y-91948475D01*
X70583447Y-91894666D01*
X68176149Y-91262466D02*
X68341138Y-91338121D01*
X68477977Y-91405745D01*
X68637496Y-91485817D01*
X68807924Y-91572330D01*
X68977496Y-91659283D01*
X69134442Y-91740669D01*
X69303723Y-91830148D01*
X69415313Y-91894666D01*
X71056286Y-97154982D02*
X68970214Y-97154981D01*
X71028480Y-92128342D02*
X71028479Y-92647457D01*
X68163598Y-94208729D02*
X68163614Y-94057707D01*
X68163743Y-93761597D01*
X68163995Y-93474658D01*
X68164363Y-93198401D01*
X68164841Y-92934337D01*
X68165422Y-92683975D01*
X68166100Y-92448826D01*
X68166869Y-92230400D01*
X68167722Y-92030209D01*
X68168652Y-91849763D01*
X68169654Y-91690573D01*
X68171275Y-91494945D01*
X68173627Y-91322600D01*
X68176149Y-91262466D01*
X70527822Y-92433411D02*
X69999409Y-92166712D01*
X68970284Y-92128341D02*
X69109356Y-92061254D01*
X69192802Y-92021005D01*
X65772689Y-92836313D02*
X65912867Y-92771393D01*
X66053045Y-92706472D01*
X66193224Y-92641551D01*
X66333402Y-92576630D01*
X66473579Y-92511709D01*
X66520305Y-92490070D01*
X66327843Y-93111231D02*
X66327843Y-97154984D01*
X71056286Y-93000001D02*
X71056286Y-97154982D01*
X70805965Y-92021003D02*
X70664635Y-91948475D01*
X70583447Y-91894666D01*
X67635120Y-90444122D02*
X69999345Y-91619652D01*
X69192802Y-92021005D02*
X69334129Y-91948476D01*
X69415313Y-91894666D01*
X71028479Y-92647457D02*
X70527822Y-92647456D01*
X73670838Y-93111229D02*
X72697334Y-92711779D01*
X73670840Y-97154980D02*
X73670838Y-93111229D01*
X70527822Y-92433411D02*
X69999409Y-92166712D01*
X70583447Y-91894666D02*
X70731732Y-91810484D01*
X70914458Y-91714529D01*
X71076913Y-91630620D01*
X71248073Y-91543146D01*
X71416170Y-91458113D01*
X71569434Y-91381524D01*
X71730374Y-91302919D01*
X71822551Y-91262466D01*
X69526496Y-96752076D02*
X70500002Y-96752075D01*
X72363567Y-97154986D02*
X71835094Y-97154985D01*
X69526496Y-96752076D02*
X70500002Y-96752075D01*
X68163602Y-97154988D02*
X68163601Y-96970846D01*
X68163601Y-96786705D01*
X68163600Y-96602564D01*
X68163600Y-96418423D01*
X68163600Y-96234282D01*
X68163600Y-96050141D01*
X68163600Y-95866000D01*
X68163600Y-95681859D01*
X68163599Y-95497718D01*
X68163599Y-95313576D01*
X68163599Y-95129435D01*
X68163599Y-94945294D01*
X68163599Y-94761153D01*
X68163598Y-94577011D01*
X68163598Y-94392870D01*
X68163598Y-94208729D01*
X74226985Y-97154980D02*
X73670840Y-97154980D01*
X66520305Y-92490070D02*
X66670828Y-92420516D01*
X66811912Y-92355629D01*
X66970217Y-92283245D01*
X67125629Y-92212842D01*
X67266024Y-92150889D01*
X67284640Y-92143822D01*
X71835094Y-97154985D02*
X71835094Y-96970843D01*
X71835094Y-96786702D01*
X71835094Y-96602561D01*
X71835095Y-96418420D01*
X71835095Y-96234278D01*
X71835095Y-96050137D01*
X71835095Y-95865996D01*
X71835095Y-95681855D01*
X71835095Y-95497714D01*
X71835095Y-95313573D01*
X71835095Y-95129433D01*
X71835095Y-94945292D01*
X71835095Y-94761151D01*
X71835095Y-94577010D01*
X71835095Y-94392869D01*
X71835096Y-94208729D01*
X70527822Y-92647456D02*
X70527822Y-92433411D01*
X65771558Y-97154985D02*
X65772689Y-92836313D01*
X69526500Y-93000001D02*
X69526496Y-96752076D01*
X70583447Y-91894666D02*
X70731732Y-91810484D01*
X70914458Y-91714529D01*
X71076913Y-91630620D01*
X71248073Y-91543146D01*
X71416170Y-91458113D01*
X71569434Y-91381524D01*
X71730374Y-91302919D01*
X71822551Y-91262466D01*
X69999345Y-91619652D02*
X72363567Y-90444126D01*
X70500002Y-96752075D02*
X70500000Y-93000000D01*
X66327843Y-97154984D02*
X65771558Y-97154985D01*
X73670838Y-93111229D02*
X72697334Y-92711779D01*
X68163598Y-94208729D02*
X68163614Y-94057707D01*
X68163743Y-93761597D01*
X68163995Y-93474658D01*
X68164363Y-93198401D01*
X68164841Y-92934337D01*
X68165422Y-92683975D01*
X68166100Y-92448826D01*
X68166869Y-92230400D01*
X68167722Y-92030209D01*
X68168652Y-91849763D01*
X68169654Y-91690573D01*
X68171275Y-91494945D01*
X68173627Y-91322600D01*
X68176149Y-91262466D01*
X69999409Y-92166712D02*
X69470999Y-92433412D01*
X65772689Y-92836313D02*
X65912867Y-92771393D01*
X66053045Y-92706472D01*
X66193224Y-92641551D01*
X66333402Y-92576630D01*
X66473579Y-92511709D01*
X66520305Y-92490070D01*
X68970214Y-97154981D02*
X68970214Y-93000001D01*
X69999345Y-91619652D02*
X72363567Y-90444126D01*
X72363567Y-90444126D02*
X72363567Y-97154986D01*
X68163602Y-97154988D02*
X67635130Y-97154988D01*
X73670840Y-97154980D02*
X73670838Y-93111229D01*
X66520305Y-92490070D02*
X66670828Y-92420516D01*
X66811912Y-92355629D01*
X66970217Y-92283245D01*
X67125629Y-92212842D01*
X67266024Y-92150889D01*
X67284640Y-92143822D01*
D11*
X42426377Y-80412238D02*
X42331139Y-80364619D01*
X42331139Y-80364619D02*
X42188282Y-80364619D01*
X42188282Y-80364619D02*
X42045425Y-80412238D01*
X42045425Y-80412238D02*
X41950187Y-80507476D01*
X41950187Y-80507476D02*
X41902568Y-80602714D01*
X41902568Y-80602714D02*
X41854949Y-80793190D01*
X41854949Y-80793190D02*
X41854949Y-80936047D01*
X41854949Y-80936047D02*
X41902568Y-81126523D01*
X41902568Y-81126523D02*
X41950187Y-81221761D01*
X41950187Y-81221761D02*
X42045425Y-81317000D01*
X42045425Y-81317000D02*
X42188282Y-81364619D01*
X42188282Y-81364619D02*
X42283520Y-81364619D01*
X42283520Y-81364619D02*
X42426377Y-81317000D01*
X42426377Y-81317000D02*
X42473996Y-81269380D01*
X42473996Y-81269380D02*
X42473996Y-80936047D01*
X42473996Y-80936047D02*
X42283520Y-80936047D01*
X42902568Y-81364619D02*
X42902568Y-80364619D01*
X42902568Y-80364619D02*
X43473996Y-81364619D01*
X43473996Y-81364619D02*
X43473996Y-80364619D01*
X43950187Y-81364619D02*
X43950187Y-80364619D01*
X43950187Y-80364619D02*
X44188282Y-80364619D01*
X44188282Y-80364619D02*
X44331139Y-80412238D01*
X44331139Y-80412238D02*
X44426377Y-80507476D01*
X44426377Y-80507476D02*
X44473996Y-80602714D01*
X44473996Y-80602714D02*
X44521615Y-80793190D01*
X44521615Y-80793190D02*
X44521615Y-80936047D01*
X44521615Y-80936047D02*
X44473996Y-81126523D01*
X44473996Y-81126523D02*
X44426377Y-81221761D01*
X44426377Y-81221761D02*
X44331139Y-81317000D01*
X44331139Y-81317000D02*
X44188282Y-81364619D01*
X44188282Y-81364619D02*
X43950187Y-81364619D01*
X61904762Y-98644619D02*
X61904762Y-97644619D01*
X61904762Y-97644619D02*
X62238095Y-98358904D01*
X62238095Y-98358904D02*
X62571428Y-97644619D01*
X62571428Y-97644619D02*
X62571428Y-98644619D01*
X63047619Y-98644619D02*
X63047619Y-97977952D01*
X63047619Y-97644619D02*
X63000000Y-97692238D01*
X63000000Y-97692238D02*
X63047619Y-97739857D01*
X63047619Y-97739857D02*
X63095238Y-97692238D01*
X63095238Y-97692238D02*
X63047619Y-97644619D01*
X63047619Y-97644619D02*
X63047619Y-97739857D01*
X63666666Y-98644619D02*
X63571428Y-98597000D01*
X63571428Y-98597000D02*
X63523809Y-98501761D01*
X63523809Y-98501761D02*
X63523809Y-97644619D01*
X64190476Y-98644619D02*
X64095238Y-98597000D01*
X64095238Y-98597000D02*
X64047619Y-98501761D01*
X64047619Y-98501761D02*
X64047619Y-97644619D01*
X64952381Y-98597000D02*
X64857143Y-98644619D01*
X64857143Y-98644619D02*
X64666667Y-98644619D01*
X64666667Y-98644619D02*
X64571429Y-98597000D01*
X64571429Y-98597000D02*
X64523810Y-98501761D01*
X64523810Y-98501761D02*
X64523810Y-98120809D01*
X64523810Y-98120809D02*
X64571429Y-98025571D01*
X64571429Y-98025571D02*
X64666667Y-97977952D01*
X64666667Y-97977952D02*
X64857143Y-97977952D01*
X64857143Y-97977952D02*
X64952381Y-98025571D01*
X64952381Y-98025571D02*
X65000000Y-98120809D01*
X65000000Y-98120809D02*
X65000000Y-98216047D01*
X65000000Y-98216047D02*
X64523810Y-98311285D01*
X65428572Y-97977952D02*
X65428572Y-98644619D01*
X65428572Y-98073190D02*
X65476191Y-98025571D01*
X65476191Y-98025571D02*
X65571429Y-97977952D01*
X65571429Y-97977952D02*
X65714286Y-97977952D01*
X65714286Y-97977952D02*
X65809524Y-98025571D01*
X65809524Y-98025571D02*
X65857143Y-98120809D01*
X65857143Y-98120809D02*
X65857143Y-98644619D01*
X66333334Y-97977952D02*
X66333334Y-98644619D01*
X66333334Y-98073190D02*
X66380953Y-98025571D01*
X66380953Y-98025571D02*
X66476191Y-97977952D01*
X66476191Y-97977952D02*
X66619048Y-97977952D01*
X66619048Y-97977952D02*
X66714286Y-98025571D01*
X66714286Y-98025571D02*
X66761905Y-98120809D01*
X66761905Y-98120809D02*
X66761905Y-98644619D01*
X67238096Y-98644619D02*
X67238096Y-97977952D01*
X67238096Y-97644619D02*
X67190477Y-97692238D01*
X67190477Y-97692238D02*
X67238096Y-97739857D01*
X67238096Y-97739857D02*
X67285715Y-97692238D01*
X67285715Y-97692238D02*
X67238096Y-97644619D01*
X67238096Y-97644619D02*
X67238096Y-97739857D01*
X68142857Y-97977952D02*
X68142857Y-98644619D01*
X67714286Y-97977952D02*
X67714286Y-98501761D01*
X67714286Y-98501761D02*
X67761905Y-98597000D01*
X67761905Y-98597000D02*
X67857143Y-98644619D01*
X67857143Y-98644619D02*
X68000000Y-98644619D01*
X68000000Y-98644619D02*
X68095238Y-98597000D01*
X68095238Y-98597000D02*
X68142857Y-98549380D01*
X68619048Y-98644619D02*
X68619048Y-97977952D01*
X68619048Y-98073190D02*
X68666667Y-98025571D01*
X68666667Y-98025571D02*
X68761905Y-97977952D01*
X68761905Y-97977952D02*
X68904762Y-97977952D01*
X68904762Y-97977952D02*
X69000000Y-98025571D01*
X69000000Y-98025571D02*
X69047619Y-98120809D01*
X69047619Y-98120809D02*
X69047619Y-98644619D01*
X69047619Y-98120809D02*
X69095238Y-98025571D01*
X69095238Y-98025571D02*
X69190476Y-97977952D01*
X69190476Y-97977952D02*
X69333333Y-97977952D01*
X69333333Y-97977952D02*
X69428572Y-98025571D01*
X69428572Y-98025571D02*
X69476191Y-98120809D01*
X69476191Y-98120809D02*
X69476191Y-98644619D01*
X70714286Y-98644619D02*
X70714286Y-97644619D01*
X70714286Y-97644619D02*
X71047619Y-98358904D01*
X71047619Y-98358904D02*
X71380952Y-97644619D01*
X71380952Y-97644619D02*
X71380952Y-98644619D01*
X72285714Y-98644619D02*
X72285714Y-98120809D01*
X72285714Y-98120809D02*
X72238095Y-98025571D01*
X72238095Y-98025571D02*
X72142857Y-97977952D01*
X72142857Y-97977952D02*
X71952381Y-97977952D01*
X71952381Y-97977952D02*
X71857143Y-98025571D01*
X72285714Y-98597000D02*
X72190476Y-98644619D01*
X72190476Y-98644619D02*
X71952381Y-98644619D01*
X71952381Y-98644619D02*
X71857143Y-98597000D01*
X71857143Y-98597000D02*
X71809524Y-98501761D01*
X71809524Y-98501761D02*
X71809524Y-98406523D01*
X71809524Y-98406523D02*
X71857143Y-98311285D01*
X71857143Y-98311285D02*
X71952381Y-98263666D01*
X71952381Y-98263666D02*
X72190476Y-98263666D01*
X72190476Y-98263666D02*
X72285714Y-98216047D01*
X73190476Y-98597000D02*
X73095238Y-98644619D01*
X73095238Y-98644619D02*
X72904762Y-98644619D01*
X72904762Y-98644619D02*
X72809524Y-98597000D01*
X72809524Y-98597000D02*
X72761905Y-98549380D01*
X72761905Y-98549380D02*
X72714286Y-98454142D01*
X72714286Y-98454142D02*
X72714286Y-98168428D01*
X72714286Y-98168428D02*
X72761905Y-98073190D01*
X72761905Y-98073190D02*
X72809524Y-98025571D01*
X72809524Y-98025571D02*
X72904762Y-97977952D01*
X72904762Y-97977952D02*
X73095238Y-97977952D01*
X73095238Y-97977952D02*
X73190476Y-98025571D01*
X73619048Y-98644619D02*
X73619048Y-97644619D01*
X74047619Y-98644619D02*
X74047619Y-98120809D01*
X74047619Y-98120809D02*
X74000000Y-98025571D01*
X74000000Y-98025571D02*
X73904762Y-97977952D01*
X73904762Y-97977952D02*
X73761905Y-97977952D01*
X73761905Y-97977952D02*
X73666667Y-98025571D01*
X73666667Y-98025571D02*
X73619048Y-98073190D01*
X74523810Y-98644619D02*
X74523810Y-97977952D01*
X74523810Y-97644619D02*
X74476191Y-97692238D01*
X74476191Y-97692238D02*
X74523810Y-97739857D01*
X74523810Y-97739857D02*
X74571429Y-97692238D01*
X74571429Y-97692238D02*
X74523810Y-97644619D01*
X74523810Y-97644619D02*
X74523810Y-97739857D01*
X75000000Y-97977952D02*
X75000000Y-98644619D01*
X75000000Y-98073190D02*
X75047619Y-98025571D01*
X75047619Y-98025571D02*
X75142857Y-97977952D01*
X75142857Y-97977952D02*
X75285714Y-97977952D01*
X75285714Y-97977952D02*
X75380952Y-98025571D01*
X75380952Y-98025571D02*
X75428571Y-98120809D01*
X75428571Y-98120809D02*
X75428571Y-98644619D01*
X76285714Y-98597000D02*
X76190476Y-98644619D01*
X76190476Y-98644619D02*
X76000000Y-98644619D01*
X76000000Y-98644619D02*
X75904762Y-98597000D01*
X75904762Y-98597000D02*
X75857143Y-98501761D01*
X75857143Y-98501761D02*
X75857143Y-98120809D01*
X75857143Y-98120809D02*
X75904762Y-98025571D01*
X75904762Y-98025571D02*
X76000000Y-97977952D01*
X76000000Y-97977952D02*
X76190476Y-97977952D01*
X76190476Y-97977952D02*
X76285714Y-98025571D01*
X76285714Y-98025571D02*
X76333333Y-98120809D01*
X76333333Y-98120809D02*
X76333333Y-98216047D01*
X76333333Y-98216047D02*
X75857143Y-98311285D01*
X76714286Y-98597000D02*
X76809524Y-98644619D01*
X76809524Y-98644619D02*
X77000000Y-98644619D01*
X77000000Y-98644619D02*
X77095238Y-98597000D01*
X77095238Y-98597000D02*
X77142857Y-98501761D01*
X77142857Y-98501761D02*
X77142857Y-98454142D01*
X77142857Y-98454142D02*
X77095238Y-98358904D01*
X77095238Y-98358904D02*
X77000000Y-98311285D01*
X77000000Y-98311285D02*
X76857143Y-98311285D01*
X76857143Y-98311285D02*
X76761905Y-98263666D01*
X76761905Y-98263666D02*
X76714286Y-98168428D01*
X76714286Y-98168428D02*
X76714286Y-98120809D01*
X76714286Y-98120809D02*
X76761905Y-98025571D01*
X76761905Y-98025571D02*
X76857143Y-97977952D01*
X76857143Y-97977952D02*
X77000000Y-97977952D01*
X77000000Y-97977952D02*
X77095238Y-98025571D01*
X68214286Y-100254619D02*
X68214286Y-99254619D01*
X68214286Y-99254619D02*
X68547619Y-99968904D01*
X68547619Y-99968904D02*
X68880952Y-99254619D01*
X68880952Y-99254619D02*
X68880952Y-100254619D01*
X69357143Y-100254619D02*
X69357143Y-99587952D01*
X69357143Y-99254619D02*
X69309524Y-99302238D01*
X69309524Y-99302238D02*
X69357143Y-99349857D01*
X69357143Y-99349857D02*
X69404762Y-99302238D01*
X69404762Y-99302238D02*
X69357143Y-99254619D01*
X69357143Y-99254619D02*
X69357143Y-99349857D01*
X69976190Y-100254619D02*
X69880952Y-100207000D01*
X69880952Y-100207000D02*
X69833333Y-100111761D01*
X69833333Y-100111761D02*
X69833333Y-99254619D01*
X70500000Y-100254619D02*
X70404762Y-100207000D01*
X70404762Y-100207000D02*
X70357143Y-100159380D01*
X70357143Y-100159380D02*
X70309524Y-100064142D01*
X70309524Y-100064142D02*
X70309524Y-99778428D01*
X70309524Y-99778428D02*
X70357143Y-99683190D01*
X70357143Y-99683190D02*
X70404762Y-99635571D01*
X70404762Y-99635571D02*
X70500000Y-99587952D01*
X70500000Y-99587952D02*
X70642857Y-99587952D01*
X70642857Y-99587952D02*
X70738095Y-99635571D01*
X70738095Y-99635571D02*
X70785714Y-99683190D01*
X70785714Y-99683190D02*
X70833333Y-99778428D01*
X70833333Y-99778428D02*
X70833333Y-100064142D01*
X70833333Y-100064142D02*
X70785714Y-100159380D01*
X70785714Y-100159380D02*
X70738095Y-100207000D01*
X70738095Y-100207000D02*
X70642857Y-100254619D01*
X70642857Y-100254619D02*
X70500000Y-100254619D01*
X63333332Y-101864619D02*
X62857142Y-101864619D01*
X62857142Y-101864619D02*
X62857142Y-100864619D01*
X63666666Y-101340809D02*
X63999999Y-101340809D01*
X64142856Y-101864619D02*
X63666666Y-101864619D01*
X63666666Y-101864619D02*
X63666666Y-100864619D01*
X63666666Y-100864619D02*
X64142856Y-100864619D01*
X64571428Y-101864619D02*
X64571428Y-100864619D01*
X64571428Y-100864619D02*
X64809523Y-100864619D01*
X64809523Y-100864619D02*
X64952380Y-100912238D01*
X64952380Y-100912238D02*
X65047618Y-101007476D01*
X65047618Y-101007476D02*
X65095237Y-101102714D01*
X65095237Y-101102714D02*
X65142856Y-101293190D01*
X65142856Y-101293190D02*
X65142856Y-101436047D01*
X65142856Y-101436047D02*
X65095237Y-101626523D01*
X65095237Y-101626523D02*
X65047618Y-101721761D01*
X65047618Y-101721761D02*
X64952380Y-101817000D01*
X64952380Y-101817000D02*
X64809523Y-101864619D01*
X64809523Y-101864619D02*
X64571428Y-101864619D01*
X66904761Y-101864619D02*
X66571428Y-101388428D01*
X66333333Y-101864619D02*
X66333333Y-100864619D01*
X66333333Y-100864619D02*
X66714285Y-100864619D01*
X66714285Y-100864619D02*
X66809523Y-100912238D01*
X66809523Y-100912238D02*
X66857142Y-100959857D01*
X66857142Y-100959857D02*
X66904761Y-101055095D01*
X66904761Y-101055095D02*
X66904761Y-101197952D01*
X66904761Y-101197952D02*
X66857142Y-101293190D01*
X66857142Y-101293190D02*
X66809523Y-101340809D01*
X66809523Y-101340809D02*
X66714285Y-101388428D01*
X66714285Y-101388428D02*
X66333333Y-101388428D01*
X67333333Y-101864619D02*
X67333333Y-101197952D01*
X67333333Y-100864619D02*
X67285714Y-100912238D01*
X67285714Y-100912238D02*
X67333333Y-100959857D01*
X67333333Y-100959857D02*
X67380952Y-100912238D01*
X67380952Y-100912238D02*
X67333333Y-100864619D01*
X67333333Y-100864619D02*
X67333333Y-100959857D01*
X67809523Y-101197952D02*
X67809523Y-101864619D01*
X67809523Y-101293190D02*
X67857142Y-101245571D01*
X67857142Y-101245571D02*
X67952380Y-101197952D01*
X67952380Y-101197952D02*
X68095237Y-101197952D01*
X68095237Y-101197952D02*
X68190475Y-101245571D01*
X68190475Y-101245571D02*
X68238094Y-101340809D01*
X68238094Y-101340809D02*
X68238094Y-101864619D01*
X69142856Y-101197952D02*
X69142856Y-102007476D01*
X69142856Y-102007476D02*
X69095237Y-102102714D01*
X69095237Y-102102714D02*
X69047618Y-102150333D01*
X69047618Y-102150333D02*
X68952380Y-102197952D01*
X68952380Y-102197952D02*
X68809523Y-102197952D01*
X68809523Y-102197952D02*
X68714285Y-102150333D01*
X69142856Y-101817000D02*
X69047618Y-101864619D01*
X69047618Y-101864619D02*
X68857142Y-101864619D01*
X68857142Y-101864619D02*
X68761904Y-101817000D01*
X68761904Y-101817000D02*
X68714285Y-101769380D01*
X68714285Y-101769380D02*
X68666666Y-101674142D01*
X68666666Y-101674142D02*
X68666666Y-101388428D01*
X68666666Y-101388428D02*
X68714285Y-101293190D01*
X68714285Y-101293190D02*
X68761904Y-101245571D01*
X68761904Y-101245571D02*
X68857142Y-101197952D01*
X68857142Y-101197952D02*
X69047618Y-101197952D01*
X69047618Y-101197952D02*
X69142856Y-101245571D01*
X70857142Y-101864619D02*
X70380952Y-101864619D01*
X70380952Y-101864619D02*
X70380952Y-100864619D01*
X71190476Y-101864619D02*
X71190476Y-101197952D01*
X71190476Y-100864619D02*
X71142857Y-100912238D01*
X71142857Y-100912238D02*
X71190476Y-100959857D01*
X71190476Y-100959857D02*
X71238095Y-100912238D01*
X71238095Y-100912238D02*
X71190476Y-100864619D01*
X71190476Y-100864619D02*
X71190476Y-100959857D01*
X72095237Y-101197952D02*
X72095237Y-102007476D01*
X72095237Y-102007476D02*
X72047618Y-102102714D01*
X72047618Y-102102714D02*
X71999999Y-102150333D01*
X71999999Y-102150333D02*
X71904761Y-102197952D01*
X71904761Y-102197952D02*
X71761904Y-102197952D01*
X71761904Y-102197952D02*
X71666666Y-102150333D01*
X72095237Y-101817000D02*
X71999999Y-101864619D01*
X71999999Y-101864619D02*
X71809523Y-101864619D01*
X71809523Y-101864619D02*
X71714285Y-101817000D01*
X71714285Y-101817000D02*
X71666666Y-101769380D01*
X71666666Y-101769380D02*
X71619047Y-101674142D01*
X71619047Y-101674142D02*
X71619047Y-101388428D01*
X71619047Y-101388428D02*
X71666666Y-101293190D01*
X71666666Y-101293190D02*
X71714285Y-101245571D01*
X71714285Y-101245571D02*
X71809523Y-101197952D01*
X71809523Y-101197952D02*
X71999999Y-101197952D01*
X71999999Y-101197952D02*
X72095237Y-101245571D01*
X72571428Y-101864619D02*
X72571428Y-100864619D01*
X72999999Y-101864619D02*
X72999999Y-101340809D01*
X72999999Y-101340809D02*
X72952380Y-101245571D01*
X72952380Y-101245571D02*
X72857142Y-101197952D01*
X72857142Y-101197952D02*
X72714285Y-101197952D01*
X72714285Y-101197952D02*
X72619047Y-101245571D01*
X72619047Y-101245571D02*
X72571428Y-101293190D01*
X73333333Y-101197952D02*
X73714285Y-101197952D01*
X73476190Y-100864619D02*
X73476190Y-101721761D01*
X73476190Y-101721761D02*
X73523809Y-101817000D01*
X73523809Y-101817000D02*
X73619047Y-101864619D01*
X73619047Y-101864619D02*
X73714285Y-101864619D01*
X74666667Y-100864619D02*
X75000000Y-101864619D01*
X75000000Y-101864619D02*
X75333333Y-100864619D01*
X76190476Y-101864619D02*
X75619048Y-101864619D01*
X75904762Y-101864619D02*
X75904762Y-100864619D01*
X75904762Y-100864619D02*
X75809524Y-101007476D01*
X75809524Y-101007476D02*
X75714286Y-101102714D01*
X75714286Y-101102714D02*
X75619048Y-101150333D01*
X95759711Y-98364619D02*
X96093044Y-99364619D01*
X96093044Y-99364619D02*
X96426377Y-98364619D01*
X96759711Y-99364619D02*
X96759711Y-98364619D01*
X96759711Y-98364619D02*
X96997806Y-98364619D01*
X96997806Y-98364619D02*
X97140663Y-98412238D01*
X97140663Y-98412238D02*
X97235901Y-98507476D01*
X97235901Y-98507476D02*
X97283520Y-98602714D01*
X97283520Y-98602714D02*
X97331139Y-98793190D01*
X97331139Y-98793190D02*
X97331139Y-98936047D01*
X97331139Y-98936047D02*
X97283520Y-99126523D01*
X97283520Y-99126523D02*
X97235901Y-99221761D01*
X97235901Y-99221761D02*
X97140663Y-99317000D01*
X97140663Y-99317000D02*
X96997806Y-99364619D01*
X96997806Y-99364619D02*
X96759711Y-99364619D01*
X97759711Y-99364619D02*
X97759711Y-98364619D01*
X97759711Y-98364619D02*
X97997806Y-98364619D01*
X97997806Y-98364619D02*
X98140663Y-98412238D01*
X98140663Y-98412238D02*
X98235901Y-98507476D01*
X98235901Y-98507476D02*
X98283520Y-98602714D01*
X98283520Y-98602714D02*
X98331139Y-98793190D01*
X98331139Y-98793190D02*
X98331139Y-98936047D01*
X98331139Y-98936047D02*
X98283520Y-99126523D01*
X98283520Y-99126523D02*
X98235901Y-99221761D01*
X98235901Y-99221761D02*
X98140663Y-99317000D01*
X98140663Y-99317000D02*
X97997806Y-99364619D01*
X97997806Y-99364619D02*
X97759711Y-99364619D01*
X98926377Y-93912238D02*
X98831139Y-93864619D01*
X98831139Y-93864619D02*
X98688282Y-93864619D01*
X98688282Y-93864619D02*
X98545425Y-93912238D01*
X98545425Y-93912238D02*
X98450187Y-94007476D01*
X98450187Y-94007476D02*
X98402568Y-94102714D01*
X98402568Y-94102714D02*
X98354949Y-94293190D01*
X98354949Y-94293190D02*
X98354949Y-94436047D01*
X98354949Y-94436047D02*
X98402568Y-94626523D01*
X98402568Y-94626523D02*
X98450187Y-94721761D01*
X98450187Y-94721761D02*
X98545425Y-94817000D01*
X98545425Y-94817000D02*
X98688282Y-94864619D01*
X98688282Y-94864619D02*
X98783520Y-94864619D01*
X98783520Y-94864619D02*
X98926377Y-94817000D01*
X98926377Y-94817000D02*
X98973996Y-94769380D01*
X98973996Y-94769380D02*
X98973996Y-94436047D01*
X98973996Y-94436047D02*
X98783520Y-94436047D01*
X99402568Y-94864619D02*
X99402568Y-93864619D01*
X99402568Y-93864619D02*
X99973996Y-94864619D01*
X99973996Y-94864619D02*
X99973996Y-93864619D01*
X100450187Y-94864619D02*
X100450187Y-93864619D01*
X100450187Y-93864619D02*
X100688282Y-93864619D01*
X100688282Y-93864619D02*
X100831139Y-93912238D01*
X100831139Y-93912238D02*
X100926377Y-94007476D01*
X100926377Y-94007476D02*
X100973996Y-94102714D01*
X100973996Y-94102714D02*
X101021615Y-94293190D01*
X101021615Y-94293190D02*
X101021615Y-94436047D01*
X101021615Y-94436047D02*
X100973996Y-94626523D01*
X100973996Y-94626523D02*
X100926377Y-94721761D01*
X100926377Y-94721761D02*
X100831139Y-94817000D01*
X100831139Y-94817000D02*
X100688282Y-94864619D01*
X100688282Y-94864619D02*
X100450187Y-94864619D01*
X90926377Y-94912238D02*
X90831139Y-94864619D01*
X90831139Y-94864619D02*
X90688282Y-94864619D01*
X90688282Y-94864619D02*
X90545425Y-94912238D01*
X90545425Y-94912238D02*
X90450187Y-95007476D01*
X90450187Y-95007476D02*
X90402568Y-95102714D01*
X90402568Y-95102714D02*
X90354949Y-95293190D01*
X90354949Y-95293190D02*
X90354949Y-95436047D01*
X90354949Y-95436047D02*
X90402568Y-95626523D01*
X90402568Y-95626523D02*
X90450187Y-95721761D01*
X90450187Y-95721761D02*
X90545425Y-95817000D01*
X90545425Y-95817000D02*
X90688282Y-95864619D01*
X90688282Y-95864619D02*
X90783520Y-95864619D01*
X90783520Y-95864619D02*
X90926377Y-95817000D01*
X90926377Y-95817000D02*
X90973996Y-95769380D01*
X90973996Y-95769380D02*
X90973996Y-95436047D01*
X90973996Y-95436047D02*
X90783520Y-95436047D01*
X91402568Y-95864619D02*
X91402568Y-94864619D01*
X91402568Y-94864619D02*
X91973996Y-95864619D01*
X91973996Y-95864619D02*
X91973996Y-94864619D01*
X92450187Y-95864619D02*
X92450187Y-94864619D01*
X92450187Y-94864619D02*
X92688282Y-94864619D01*
X92688282Y-94864619D02*
X92831139Y-94912238D01*
X92831139Y-94912238D02*
X92926377Y-95007476D01*
X92926377Y-95007476D02*
X92973996Y-95102714D01*
X92973996Y-95102714D02*
X93021615Y-95293190D01*
X93021615Y-95293190D02*
X93021615Y-95436047D01*
X93021615Y-95436047D02*
X92973996Y-95626523D01*
X92973996Y-95626523D02*
X92926377Y-95721761D01*
X92926377Y-95721761D02*
X92831139Y-95817000D01*
X92831139Y-95817000D02*
X92688282Y-95864619D01*
X92688282Y-95864619D02*
X92450187Y-95864619D01*
X41759711Y-98364619D02*
X42093044Y-99364619D01*
X42093044Y-99364619D02*
X42426377Y-98364619D01*
X42759711Y-99364619D02*
X42759711Y-98364619D01*
X42759711Y-98364619D02*
X42997806Y-98364619D01*
X42997806Y-98364619D02*
X43140663Y-98412238D01*
X43140663Y-98412238D02*
X43235901Y-98507476D01*
X43235901Y-98507476D02*
X43283520Y-98602714D01*
X43283520Y-98602714D02*
X43331139Y-98793190D01*
X43331139Y-98793190D02*
X43331139Y-98936047D01*
X43331139Y-98936047D02*
X43283520Y-99126523D01*
X43283520Y-99126523D02*
X43235901Y-99221761D01*
X43235901Y-99221761D02*
X43140663Y-99317000D01*
X43140663Y-99317000D02*
X42997806Y-99364619D01*
X42997806Y-99364619D02*
X42759711Y-99364619D01*
X43759711Y-99364619D02*
X43759711Y-98364619D01*
X43759711Y-98364619D02*
X43997806Y-98364619D01*
X43997806Y-98364619D02*
X44140663Y-98412238D01*
X44140663Y-98412238D02*
X44235901Y-98507476D01*
X44235901Y-98507476D02*
X44283520Y-98602714D01*
X44283520Y-98602714D02*
X44331139Y-98793190D01*
X44331139Y-98793190D02*
X44331139Y-98936047D01*
X44331139Y-98936047D02*
X44283520Y-99126523D01*
X44283520Y-99126523D02*
X44235901Y-99221761D01*
X44235901Y-99221761D02*
X44140663Y-99317000D01*
X44140663Y-99317000D02*
X43997806Y-99364619D01*
X43997806Y-99364619D02*
X43759711Y-99364619D01*
X95759711Y-83364619D02*
X96093044Y-84364619D01*
X96093044Y-84364619D02*
X96426377Y-83364619D01*
X96759711Y-84364619D02*
X96759711Y-83364619D01*
X96759711Y-83364619D02*
X96997806Y-83364619D01*
X96997806Y-83364619D02*
X97140663Y-83412238D01*
X97140663Y-83412238D02*
X97235901Y-83507476D01*
X97235901Y-83507476D02*
X97283520Y-83602714D01*
X97283520Y-83602714D02*
X97331139Y-83793190D01*
X97331139Y-83793190D02*
X97331139Y-83936047D01*
X97331139Y-83936047D02*
X97283520Y-84126523D01*
X97283520Y-84126523D02*
X97235901Y-84221761D01*
X97235901Y-84221761D02*
X97140663Y-84317000D01*
X97140663Y-84317000D02*
X96997806Y-84364619D01*
X96997806Y-84364619D02*
X96759711Y-84364619D01*
X97759711Y-84364619D02*
X97759711Y-83364619D01*
X97759711Y-83364619D02*
X97997806Y-83364619D01*
X97997806Y-83364619D02*
X98140663Y-83412238D01*
X98140663Y-83412238D02*
X98235901Y-83507476D01*
X98235901Y-83507476D02*
X98283520Y-83602714D01*
X98283520Y-83602714D02*
X98331139Y-83793190D01*
X98331139Y-83793190D02*
X98331139Y-83936047D01*
X98331139Y-83936047D02*
X98283520Y-84126523D01*
X98283520Y-84126523D02*
X98235901Y-84221761D01*
X98235901Y-84221761D02*
X98140663Y-84317000D01*
X98140663Y-84317000D02*
X97997806Y-84364619D01*
X97997806Y-84364619D02*
X97759711Y-84364619D01*
X96426377Y-80412238D02*
X96331139Y-80364619D01*
X96331139Y-80364619D02*
X96188282Y-80364619D01*
X96188282Y-80364619D02*
X96045425Y-80412238D01*
X96045425Y-80412238D02*
X95950187Y-80507476D01*
X95950187Y-80507476D02*
X95902568Y-80602714D01*
X95902568Y-80602714D02*
X95854949Y-80793190D01*
X95854949Y-80793190D02*
X95854949Y-80936047D01*
X95854949Y-80936047D02*
X95902568Y-81126523D01*
X95902568Y-81126523D02*
X95950187Y-81221761D01*
X95950187Y-81221761D02*
X96045425Y-81317000D01*
X96045425Y-81317000D02*
X96188282Y-81364619D01*
X96188282Y-81364619D02*
X96283520Y-81364619D01*
X96283520Y-81364619D02*
X96426377Y-81317000D01*
X96426377Y-81317000D02*
X96473996Y-81269380D01*
X96473996Y-81269380D02*
X96473996Y-80936047D01*
X96473996Y-80936047D02*
X96283520Y-80936047D01*
X96902568Y-81364619D02*
X96902568Y-80364619D01*
X96902568Y-80364619D02*
X97473996Y-81364619D01*
X97473996Y-81364619D02*
X97473996Y-80364619D01*
X97950187Y-81364619D02*
X97950187Y-80364619D01*
X97950187Y-80364619D02*
X98188282Y-80364619D01*
X98188282Y-80364619D02*
X98331139Y-80412238D01*
X98331139Y-80412238D02*
X98426377Y-80507476D01*
X98426377Y-80507476D02*
X98473996Y-80602714D01*
X98473996Y-80602714D02*
X98521615Y-80793190D01*
X98521615Y-80793190D02*
X98521615Y-80936047D01*
X98521615Y-80936047D02*
X98473996Y-81126523D01*
X98473996Y-81126523D02*
X98426377Y-81221761D01*
X98426377Y-81221761D02*
X98331139Y-81317000D01*
X98331139Y-81317000D02*
X98188282Y-81364619D01*
X98188282Y-81364619D02*
X97950187Y-81364619D01*
X39426377Y-93912238D02*
X39331139Y-93864619D01*
X39331139Y-93864619D02*
X39188282Y-93864619D01*
X39188282Y-93864619D02*
X39045425Y-93912238D01*
X39045425Y-93912238D02*
X38950187Y-94007476D01*
X38950187Y-94007476D02*
X38902568Y-94102714D01*
X38902568Y-94102714D02*
X38854949Y-94293190D01*
X38854949Y-94293190D02*
X38854949Y-94436047D01*
X38854949Y-94436047D02*
X38902568Y-94626523D01*
X38902568Y-94626523D02*
X38950187Y-94721761D01*
X38950187Y-94721761D02*
X39045425Y-94817000D01*
X39045425Y-94817000D02*
X39188282Y-94864619D01*
X39188282Y-94864619D02*
X39283520Y-94864619D01*
X39283520Y-94864619D02*
X39426377Y-94817000D01*
X39426377Y-94817000D02*
X39473996Y-94769380D01*
X39473996Y-94769380D02*
X39473996Y-94436047D01*
X39473996Y-94436047D02*
X39283520Y-94436047D01*
X39902568Y-94864619D02*
X39902568Y-93864619D01*
X39902568Y-93864619D02*
X40473996Y-94864619D01*
X40473996Y-94864619D02*
X40473996Y-93864619D01*
X40950187Y-94864619D02*
X40950187Y-93864619D01*
X40950187Y-93864619D02*
X41188282Y-93864619D01*
X41188282Y-93864619D02*
X41331139Y-93912238D01*
X41331139Y-93912238D02*
X41426377Y-94007476D01*
X41426377Y-94007476D02*
X41473996Y-94102714D01*
X41473996Y-94102714D02*
X41521615Y-94293190D01*
X41521615Y-94293190D02*
X41521615Y-94436047D01*
X41521615Y-94436047D02*
X41473996Y-94626523D01*
X41473996Y-94626523D02*
X41426377Y-94721761D01*
X41426377Y-94721761D02*
X41331139Y-94817000D01*
X41331139Y-94817000D02*
X41188282Y-94864619D01*
X41188282Y-94864619D02*
X40950187Y-94864619D01*
X41759711Y-83364619D02*
X42093044Y-84364619D01*
X42093044Y-84364619D02*
X42426377Y-83364619D01*
X42759711Y-84364619D02*
X42759711Y-83364619D01*
X42759711Y-83364619D02*
X42997806Y-83364619D01*
X42997806Y-83364619D02*
X43140663Y-83412238D01*
X43140663Y-83412238D02*
X43235901Y-83507476D01*
X43235901Y-83507476D02*
X43283520Y-83602714D01*
X43283520Y-83602714D02*
X43331139Y-83793190D01*
X43331139Y-83793190D02*
X43331139Y-83936047D01*
X43331139Y-83936047D02*
X43283520Y-84126523D01*
X43283520Y-84126523D02*
X43235901Y-84221761D01*
X43235901Y-84221761D02*
X43140663Y-84317000D01*
X43140663Y-84317000D02*
X42997806Y-84364619D01*
X42997806Y-84364619D02*
X42759711Y-84364619D01*
X43759711Y-84364619D02*
X43759711Y-83364619D01*
X43759711Y-83364619D02*
X43997806Y-83364619D01*
X43997806Y-83364619D02*
X44140663Y-83412238D01*
X44140663Y-83412238D02*
X44235901Y-83507476D01*
X44235901Y-83507476D02*
X44283520Y-83602714D01*
X44283520Y-83602714D02*
X44331139Y-83793190D01*
X44331139Y-83793190D02*
X44331139Y-83936047D01*
X44331139Y-83936047D02*
X44283520Y-84126523D01*
X44283520Y-84126523D02*
X44235901Y-84221761D01*
X44235901Y-84221761D02*
X44140663Y-84317000D01*
X44140663Y-84317000D02*
X43997806Y-84364619D01*
X43997806Y-84364619D02*
X43759711Y-84364619D01*
X84759711Y-94864619D02*
X85093044Y-95864619D01*
X85093044Y-95864619D02*
X85426377Y-94864619D01*
X85759711Y-95864619D02*
X85759711Y-94864619D01*
X85759711Y-94864619D02*
X85997806Y-94864619D01*
X85997806Y-94864619D02*
X86140663Y-94912238D01*
X86140663Y-94912238D02*
X86235901Y-95007476D01*
X86235901Y-95007476D02*
X86283520Y-95102714D01*
X86283520Y-95102714D02*
X86331139Y-95293190D01*
X86331139Y-95293190D02*
X86331139Y-95436047D01*
X86331139Y-95436047D02*
X86283520Y-95626523D01*
X86283520Y-95626523D02*
X86235901Y-95721761D01*
X86235901Y-95721761D02*
X86140663Y-95817000D01*
X86140663Y-95817000D02*
X85997806Y-95864619D01*
X85997806Y-95864619D02*
X85759711Y-95864619D01*
X86759711Y-95864619D02*
X86759711Y-94864619D01*
X86759711Y-94864619D02*
X86997806Y-94864619D01*
X86997806Y-94864619D02*
X87140663Y-94912238D01*
X87140663Y-94912238D02*
X87235901Y-95007476D01*
X87235901Y-95007476D02*
X87283520Y-95102714D01*
X87283520Y-95102714D02*
X87331139Y-95293190D01*
X87331139Y-95293190D02*
X87331139Y-95436047D01*
X87331139Y-95436047D02*
X87283520Y-95626523D01*
X87283520Y-95626523D02*
X87235901Y-95721761D01*
X87235901Y-95721761D02*
X87140663Y-95817000D01*
X87140663Y-95817000D02*
X86997806Y-95864619D01*
X86997806Y-95864619D02*
X86759711Y-95864619D01*
D10*
X107130690Y-91673280D02*
X107130690Y-92387565D01*
X107130690Y-92387565D02*
X107083071Y-92530422D01*
X107083071Y-92530422D02*
X106987833Y-92625661D01*
X106987833Y-92625661D02*
X106844976Y-92673280D01*
X106844976Y-92673280D02*
X106749738Y-92673280D01*
X108083071Y-91673280D02*
X107606881Y-91673280D01*
X107606881Y-91673280D02*
X107559262Y-92149470D01*
X107559262Y-92149470D02*
X107606881Y-92101851D01*
X107606881Y-92101851D02*
X107702119Y-92054232D01*
X107702119Y-92054232D02*
X107940214Y-92054232D01*
X107940214Y-92054232D02*
X108035452Y-92101851D01*
X108035452Y-92101851D02*
X108083071Y-92149470D01*
X108083071Y-92149470D02*
X108130690Y-92244708D01*
X108130690Y-92244708D02*
X108130690Y-92482803D01*
X108130690Y-92482803D02*
X108083071Y-92578041D01*
X108083071Y-92578041D02*
X108035452Y-92625661D01*
X108035452Y-92625661D02*
X107940214Y-92673280D01*
X107940214Y-92673280D02*
X107702119Y-92673280D01*
X107702119Y-92673280D02*
X107606881Y-92625661D01*
X107606881Y-92625661D02*
X107559262Y-92578041D01*
X32130690Y-76673280D02*
X32130690Y-77387565D01*
X32130690Y-77387565D02*
X32083071Y-77530422D01*
X32083071Y-77530422D02*
X31987833Y-77625661D01*
X31987833Y-77625661D02*
X31844976Y-77673280D01*
X31844976Y-77673280D02*
X31749738Y-77673280D01*
X32559262Y-76768518D02*
X32606881Y-76720899D01*
X32606881Y-76720899D02*
X32702119Y-76673280D01*
X32702119Y-76673280D02*
X32940214Y-76673280D01*
X32940214Y-76673280D02*
X33035452Y-76720899D01*
X33035452Y-76720899D02*
X33083071Y-76768518D01*
X33083071Y-76768518D02*
X33130690Y-76863756D01*
X33130690Y-76863756D02*
X33130690Y-76958994D01*
X33130690Y-76958994D02*
X33083071Y-77101851D01*
X33083071Y-77101851D02*
X32511643Y-77673280D01*
X32511643Y-77673280D02*
X33130690Y-77673280D01*
X108420729Y-59696619D02*
X108420729Y-58696619D01*
X108420729Y-58696619D02*
X108658824Y-58696619D01*
X108658824Y-58696619D02*
X108801681Y-58744238D01*
X108801681Y-58744238D02*
X108896919Y-58839476D01*
X108896919Y-58839476D02*
X108944538Y-58934714D01*
X108944538Y-58934714D02*
X108992157Y-59125190D01*
X108992157Y-59125190D02*
X108992157Y-59268047D01*
X108992157Y-59268047D02*
X108944538Y-59458523D01*
X108944538Y-59458523D02*
X108896919Y-59553761D01*
X108896919Y-59553761D02*
X108801681Y-59649000D01*
X108801681Y-59649000D02*
X108658824Y-59696619D01*
X108658824Y-59696619D02*
X108420729Y-59696619D01*
X109896919Y-58696619D02*
X109420729Y-58696619D01*
X109420729Y-58696619D02*
X109373110Y-59172809D01*
X109373110Y-59172809D02*
X109420729Y-59125190D01*
X109420729Y-59125190D02*
X109515967Y-59077571D01*
X109515967Y-59077571D02*
X109754062Y-59077571D01*
X109754062Y-59077571D02*
X109849300Y-59125190D01*
X109849300Y-59125190D02*
X109896919Y-59172809D01*
X109896919Y-59172809D02*
X109944538Y-59268047D01*
X109944538Y-59268047D02*
X109944538Y-59506142D01*
X109944538Y-59506142D02*
X109896919Y-59601380D01*
X109896919Y-59601380D02*
X109849300Y-59649000D01*
X109849300Y-59649000D02*
X109754062Y-59696619D01*
X109754062Y-59696619D02*
X109515967Y-59696619D01*
X109515967Y-59696619D02*
X109420729Y-59649000D01*
X109420729Y-59649000D02*
X109373110Y-59601380D01*
X32130690Y-91673280D02*
X32130690Y-92387565D01*
X32130690Y-92387565D02*
X32083071Y-92530422D01*
X32083071Y-92530422D02*
X31987833Y-92625661D01*
X31987833Y-92625661D02*
X31844976Y-92673280D01*
X31844976Y-92673280D02*
X31749738Y-92673280D01*
X32511643Y-91673280D02*
X33130690Y-91673280D01*
X33130690Y-91673280D02*
X32797357Y-92054232D01*
X32797357Y-92054232D02*
X32940214Y-92054232D01*
X32940214Y-92054232D02*
X33035452Y-92101851D01*
X33035452Y-92101851D02*
X33083071Y-92149470D01*
X33083071Y-92149470D02*
X33130690Y-92244708D01*
X33130690Y-92244708D02*
X33130690Y-92482803D01*
X33130690Y-92482803D02*
X33083071Y-92578041D01*
X33083071Y-92578041D02*
X33035452Y-92625661D01*
X33035452Y-92625661D02*
X32940214Y-92673280D01*
X32940214Y-92673280D02*
X32654500Y-92673280D01*
X32654500Y-92673280D02*
X32559262Y-92625661D01*
X32559262Y-92625661D02*
X32511643Y-92578041D01*
X88666666Y-94854819D02*
X88666666Y-95569104D01*
X88666666Y-95569104D02*
X88619047Y-95711961D01*
X88619047Y-95711961D02*
X88523809Y-95807200D01*
X88523809Y-95807200D02*
X88380952Y-95854819D01*
X88380952Y-95854819D02*
X88285714Y-95854819D01*
X89571428Y-94854819D02*
X89380952Y-94854819D01*
X89380952Y-94854819D02*
X89285714Y-94902438D01*
X89285714Y-94902438D02*
X89238095Y-94950057D01*
X89238095Y-94950057D02*
X89142857Y-95092914D01*
X89142857Y-95092914D02*
X89095238Y-95283390D01*
X89095238Y-95283390D02*
X89095238Y-95664342D01*
X89095238Y-95664342D02*
X89142857Y-95759580D01*
X89142857Y-95759580D02*
X89190476Y-95807200D01*
X89190476Y-95807200D02*
X89285714Y-95854819D01*
X89285714Y-95854819D02*
X89476190Y-95854819D01*
X89476190Y-95854819D02*
X89571428Y-95807200D01*
X89571428Y-95807200D02*
X89619047Y-95759580D01*
X89619047Y-95759580D02*
X89666666Y-95664342D01*
X89666666Y-95664342D02*
X89666666Y-95426247D01*
X89666666Y-95426247D02*
X89619047Y-95331009D01*
X89619047Y-95331009D02*
X89571428Y-95283390D01*
X89571428Y-95283390D02*
X89476190Y-95235771D01*
X89476190Y-95235771D02*
X89285714Y-95235771D01*
X89285714Y-95235771D02*
X89190476Y-95283390D01*
X89190476Y-95283390D02*
X89142857Y-95331009D01*
X89142857Y-95331009D02*
X89095238Y-95426247D01*
X43457986Y-89899164D02*
X44076576Y-90256307D01*
X44076576Y-90256307D02*
X44176484Y-90368975D01*
X44176484Y-90368975D02*
X44211344Y-90499073D01*
X44211344Y-90499073D02*
X44181154Y-90646600D01*
X44181154Y-90646600D02*
X44133535Y-90729079D01*
X44824012Y-89533139D02*
X44538297Y-90028010D01*
X44681155Y-89780575D02*
X43815129Y-89280575D01*
X43815129Y-89280575D02*
X43891228Y-89434482D01*
X43891228Y-89434482D02*
X43926088Y-89564579D01*
X43926088Y-89564579D02*
X43919708Y-89670867D01*
X38348645Y-78434084D02*
X37848645Y-77568058D01*
X37848645Y-77568058D02*
X38054842Y-77449011D01*
X38054842Y-77449011D02*
X38202369Y-77418821D01*
X38202369Y-77418821D02*
X38332467Y-77453681D01*
X38332467Y-77453681D02*
X38421325Y-77512350D01*
X38421325Y-77512350D02*
X38557803Y-77653498D01*
X38557803Y-77653498D02*
X38629231Y-77777216D01*
X38629231Y-77777216D02*
X38683230Y-77965982D01*
X38683230Y-77965982D02*
X38689610Y-78072271D01*
X38689610Y-78072271D02*
X38654750Y-78202368D01*
X38654750Y-78202368D02*
X38554842Y-78315036D01*
X38554842Y-78315036D02*
X38348645Y-78434084D01*
X38632192Y-77115677D02*
X39168303Y-76806154D01*
X39168303Y-76806154D02*
X39070104Y-77302735D01*
X39070104Y-77302735D02*
X39193822Y-77231306D01*
X39193822Y-77231306D02*
X39300110Y-77224926D01*
X39300110Y-77224926D02*
X39365159Y-77242356D01*
X39365159Y-77242356D02*
X39454017Y-77301025D01*
X39454017Y-77301025D02*
X39573065Y-77507222D01*
X39573065Y-77507222D02*
X39579445Y-77613510D01*
X39579445Y-77613510D02*
X39562015Y-77678559D01*
X39562015Y-77678559D02*
X39503346Y-77767417D01*
X39503346Y-77767417D02*
X39255910Y-77910274D01*
X39255910Y-77910274D02*
X39149622Y-77916654D01*
X39149622Y-77916654D02*
X39084573Y-77899224D01*
X100965410Y-77526297D02*
X101465410Y-76660272D01*
X101465410Y-76660272D02*
X101671607Y-76779319D01*
X101671607Y-76779319D02*
X101771515Y-76891987D01*
X101771515Y-76891987D02*
X101806375Y-77022085D01*
X101806375Y-77022085D02*
X101799995Y-77128373D01*
X101799995Y-77128373D02*
X101745996Y-77317140D01*
X101745996Y-77317140D02*
X101674568Y-77440858D01*
X101674568Y-77440858D02*
X101538090Y-77582005D01*
X101538090Y-77582005D02*
X101449232Y-77640674D01*
X101449232Y-77640674D02*
X101319134Y-77675534D01*
X101319134Y-77675534D02*
X101171607Y-77645345D01*
X101171607Y-77645345D02*
X100965410Y-77526297D01*
X102535923Y-77663232D02*
X102202589Y-78240583D01*
X102520202Y-77214270D02*
X101956863Y-77713812D01*
X101956863Y-77713812D02*
X102492974Y-78023336D01*
X30920729Y-60125019D02*
X30920729Y-59125019D01*
X30920729Y-59125019D02*
X31158824Y-59125019D01*
X31158824Y-59125019D02*
X31301681Y-59172638D01*
X31301681Y-59172638D02*
X31396919Y-59267876D01*
X31396919Y-59267876D02*
X31444538Y-59363114D01*
X31444538Y-59363114D02*
X31492157Y-59553590D01*
X31492157Y-59553590D02*
X31492157Y-59696447D01*
X31492157Y-59696447D02*
X31444538Y-59886923D01*
X31444538Y-59886923D02*
X31396919Y-59982161D01*
X31396919Y-59982161D02*
X31301681Y-60077400D01*
X31301681Y-60077400D02*
X31158824Y-60125019D01*
X31158824Y-60125019D02*
X30920729Y-60125019D01*
X31873110Y-59220257D02*
X31920729Y-59172638D01*
X31920729Y-59172638D02*
X32015967Y-59125019D01*
X32015967Y-59125019D02*
X32254062Y-59125019D01*
X32254062Y-59125019D02*
X32349300Y-59172638D01*
X32349300Y-59172638D02*
X32396919Y-59220257D01*
X32396919Y-59220257D02*
X32444538Y-59315495D01*
X32444538Y-59315495D02*
X32444538Y-59410733D01*
X32444538Y-59410733D02*
X32396919Y-59553590D01*
X32396919Y-59553590D02*
X31825491Y-60125019D01*
X31825491Y-60125019D02*
X32444538Y-60125019D01*
X99939597Y-30867626D02*
X99173552Y-30224838D01*
X99173552Y-30224838D02*
X99326597Y-30042447D01*
X99326597Y-30042447D02*
X99454902Y-29963621D01*
X99454902Y-29963621D02*
X99589077Y-29951882D01*
X99589077Y-29951882D02*
X99692642Y-29976622D01*
X99692642Y-29976622D02*
X99869164Y-30062579D01*
X99869164Y-30062579D02*
X99978599Y-30154406D01*
X99978599Y-30154406D02*
X100093904Y-30313320D01*
X100093904Y-30313320D02*
X100136251Y-30411016D01*
X100136251Y-30411016D02*
X100147990Y-30545191D01*
X100147990Y-30545191D02*
X100092642Y-30685234D01*
X100092642Y-30685234D02*
X99939597Y-30867626D01*
X100091821Y-29130489D02*
X99969385Y-29276402D01*
X99969385Y-29276402D02*
X99944645Y-29379968D01*
X99944645Y-29379968D02*
X99950515Y-29447055D01*
X99950515Y-29447055D02*
X99998732Y-29611839D01*
X99998732Y-29611839D02*
X100114036Y-29770753D01*
X100114036Y-29770753D02*
X100405862Y-30015624D01*
X100405862Y-30015624D02*
X100509428Y-30040364D01*
X100509428Y-30040364D02*
X100576515Y-30034494D01*
X100576515Y-30034494D02*
X100674211Y-29992147D01*
X100674211Y-29992147D02*
X100796647Y-29846233D01*
X100796647Y-29846233D02*
X100821387Y-29742668D01*
X100821387Y-29742668D02*
X100815517Y-29675581D01*
X100815517Y-29675581D02*
X100773170Y-29577884D01*
X100773170Y-29577884D02*
X100590778Y-29424840D01*
X100590778Y-29424840D02*
X100487213Y-29400100D01*
X100487213Y-29400100D02*
X100420125Y-29405970D01*
X100420125Y-29405970D02*
X100322429Y-29448317D01*
X100322429Y-29448317D02*
X100199993Y-29594230D01*
X100199993Y-29594230D02*
X100175254Y-29697796D01*
X100175254Y-29697796D02*
X100181123Y-29764883D01*
X100181123Y-29764883D02*
X100223471Y-29862579D01*
X38713495Y-29651879D02*
X39479539Y-29009092D01*
X39479539Y-29009092D02*
X39632584Y-29191483D01*
X39632584Y-29191483D02*
X39687932Y-29331527D01*
X39687932Y-29331527D02*
X39676194Y-29465701D01*
X39676194Y-29465701D02*
X39633846Y-29563398D01*
X39633846Y-29563398D02*
X39518542Y-29722312D01*
X39518542Y-29722312D02*
X39409107Y-29814138D01*
X39409107Y-29814138D02*
X39232585Y-29900096D01*
X39232585Y-29900096D02*
X39129019Y-29924835D01*
X39129019Y-29924835D02*
X38994845Y-29913097D01*
X38994845Y-29913097D02*
X38866539Y-29834271D01*
X38866539Y-29834271D02*
X38713495Y-29651879D01*
X39692981Y-30819185D02*
X39325673Y-30381445D01*
X39509327Y-30600315D02*
X40275371Y-29957528D01*
X40275371Y-29957528D02*
X40104719Y-29976398D01*
X40104719Y-29976398D02*
X39970544Y-29964659D01*
X39970544Y-29964659D02*
X39872848Y-29922311D01*
X107130690Y-76673280D02*
X107130690Y-77387565D01*
X107130690Y-77387565D02*
X107083071Y-77530422D01*
X107083071Y-77530422D02*
X106987833Y-77625661D01*
X106987833Y-77625661D02*
X106844976Y-77673280D01*
X106844976Y-77673280D02*
X106749738Y-77673280D01*
X108035452Y-77006613D02*
X108035452Y-77673280D01*
X107797357Y-76625661D02*
X107559262Y-77339946D01*
X107559262Y-77339946D02*
X108178309Y-77339946D01*
D12*
%TO.C,JP1*%
X40264024Y-84568461D02*
X39664024Y-84568461D01*
X41464024Y-84018461D02*
X41464024Y-83418461D01*
X38964024Y-83918461D02*
X38964024Y-81118461D01*
X41164024Y-83718461D02*
X41464024Y-84018461D01*
X41164024Y-83718461D02*
X41464024Y-83418461D01*
X40964024Y-81118461D02*
X40964024Y-83918461D01*
X39664024Y-80468461D02*
X40264024Y-80468461D01*
X38964024Y-83868461D02*
G75*
G03*
X39664024Y-84568461I699999J-1D01*
G01*
X40264024Y-84568461D02*
G75*
G03*
X40964024Y-83868461I1J699999D01*
G01*
X39664024Y-80468461D02*
G75*
G03*
X38964024Y-81168461I0J-700000D01*
G01*
X40964024Y-81168461D02*
G75*
G03*
X40264024Y-80468461I-700000J0D01*
G01*
%TO.C,D5*%
X110782624Y-51060000D02*
X110782624Y-57000000D01*
X107382624Y-51060000D02*
X110782624Y-51060000D01*
X107382624Y-57000000D02*
X107382624Y-51060000D01*
%TO.C,JP4*%
X100264024Y-99568461D02*
X99664024Y-99568461D01*
X101464024Y-99018461D02*
X101464024Y-98418461D01*
X98964024Y-98918461D02*
X98964024Y-96118461D01*
X101164024Y-98718461D02*
X101464024Y-99018461D01*
X101164024Y-98718461D02*
X101464024Y-98418461D01*
X100964024Y-96118461D02*
X100964024Y-98918461D01*
X99664024Y-95468461D02*
X100264024Y-95468461D01*
X98964024Y-98868461D02*
G75*
G03*
X99664024Y-99568461I699999J-1D01*
G01*
X100264024Y-99568461D02*
G75*
G03*
X100964024Y-98868461I1J699999D01*
G01*
X99664024Y-95468461D02*
G75*
G03*
X98964024Y-96168461I0J-700000D01*
G01*
X100964024Y-96168461D02*
G75*
G03*
X100264024Y-95468461I-700000J0D01*
G01*
%TO.C,JP2*%
X40264024Y-99568461D02*
X39664024Y-99568461D01*
X41464024Y-99018461D02*
X41464024Y-98418461D01*
X38964024Y-98918461D02*
X38964024Y-96118461D01*
X41164024Y-98718461D02*
X41464024Y-99018461D01*
X41164024Y-98718461D02*
X41464024Y-98418461D01*
X40964024Y-96118461D02*
X40964024Y-98918461D01*
X39664024Y-95468461D02*
X40264024Y-95468461D01*
X38964024Y-98868461D02*
G75*
G03*
X39664024Y-99568461I699999J-1D01*
G01*
X40264024Y-99568461D02*
G75*
G03*
X40964024Y-98868461I1J699999D01*
G01*
X39664024Y-95468461D02*
G75*
G03*
X38964024Y-96168461I0J-700000D01*
G01*
X40964024Y-96168461D02*
G75*
G03*
X40264024Y-95468461I-700000J0D01*
G01*
%TO.C,JP3*%
X100264024Y-84568461D02*
X99664024Y-84568461D01*
X101464024Y-84018461D02*
X101464024Y-83418461D01*
X98964024Y-83918461D02*
X98964024Y-81118461D01*
X101164024Y-83718461D02*
X101464024Y-84018461D01*
X101164024Y-83718461D02*
X101464024Y-83418461D01*
X100964024Y-81118461D02*
X100964024Y-83918461D01*
X99664024Y-80468461D02*
X100264024Y-80468461D01*
X98964024Y-83868461D02*
G75*
G03*
X99664024Y-84568461I699999J-1D01*
G01*
X100264024Y-84568461D02*
G75*
G03*
X100964024Y-83868461I1J699999D01*
G01*
X99664024Y-80468461D02*
G75*
G03*
X98964024Y-81168461I0J-700000D01*
G01*
X100964024Y-81168461D02*
G75*
G03*
X100264024Y-80468461I-700000J0D01*
G01*
%TO.C,J6*%
X84840000Y-98310000D02*
X84840000Y-100810000D01*
X84840000Y-100810000D02*
X87340000Y-100810000D01*
X85140000Y-96490000D02*
X85140000Y-100510000D01*
X85140000Y-98200000D02*
X85640000Y-98200000D01*
X85140000Y-99010000D02*
X86140000Y-99010000D01*
X85140000Y-100510000D02*
X92860000Y-100510000D01*
X85640000Y-96990000D02*
X92360000Y-96990000D01*
X85640000Y-98200000D02*
X85640000Y-96990000D01*
X86140000Y-99010000D02*
X86140000Y-100510000D01*
X91860000Y-99010000D02*
X91860000Y-100510000D01*
X92360000Y-96990000D02*
X92360000Y-98200000D01*
X92360000Y-98200000D02*
X92860000Y-98200000D01*
X92860000Y-96490000D02*
X85140000Y-96490000D01*
X92860000Y-99010000D02*
X91860000Y-99010000D01*
X92860000Y-100510000D02*
X92860000Y-96490000D01*
%TO.C,J1*%
X42686025Y-94726604D02*
X44071666Y-95526604D01*
X43095833Y-94616797D02*
X44145833Y-92798144D01*
X55826406Y-101966797D02*
X43095833Y-94616797D01*
X43536025Y-93254361D02*
X42686025Y-94726604D01*
X46645833Y-88468016D02*
X47695833Y-86649363D01*
X47695833Y-86649363D02*
X49254678Y-87549363D01*
X53065190Y-89749363D02*
X60426406Y-93999363D01*
X60426406Y-93999363D02*
X55826406Y-101966797D01*
%TO.C,D3*%
X36084867Y-69491521D02*
X39054867Y-74635712D01*
X33140381Y-71191521D02*
X36084867Y-69491521D01*
X36110381Y-76335712D02*
X33140381Y-71191521D01*
%TO.C,D4*%
X107524867Y-71191521D02*
X104554867Y-76335712D01*
X104580381Y-69491521D02*
X107524867Y-71191521D01*
X101610381Y-74635712D02*
X104580381Y-69491521D01*
%TO.C,D2*%
X33282624Y-51482800D02*
X33282624Y-57422800D01*
X29882624Y-51482800D02*
X33282624Y-51482800D01*
X29882624Y-57422800D02*
X29882624Y-51482800D01*
%TO.C,D6*%
X94953863Y-23250378D02*
X99504167Y-27068536D01*
X92768386Y-25854929D02*
X94953863Y-23250378D01*
X97318690Y-29673087D02*
X92768386Y-25854929D01*
%TO.C,D1*%
X46924978Y-25854929D02*
X42374674Y-29673087D01*
X44739501Y-23250378D02*
X46924978Y-25854929D01*
X40189197Y-27068536D02*
X44739501Y-23250378D01*
%TD*%
M02*
