%TF.GenerationSoftware,KiCad,Pcbnew,7.0.8*%
%TF.CreationDate,2024-01-31T23:47:12+00:00*%
%TF.ProjectId,Milo_RingLight,4d696c6f-5f52-4696-9e67-4c696768742e,rev?*%
%TF.SameCoordinates,Original*%
%TF.FileFunction,Copper,L2,Bot*%
%TF.FilePolarity,Positive*%
%FSLAX46Y46*%
G04 Gerber Fmt 4.6, Leading zero omitted, Abs format (unit mm)*
G04 Created by KiCad (PCBNEW 7.0.8) date 2024-01-31 23:47:12*
%MOMM*%
%LPD*%
G01*
G04 APERTURE LIST*
G04 Aperture macros list*
%AMRoundRect*
0 Rectangle with rounded corners*
0 $1 Rounding radius*
0 $2 $3 $4 $5 $6 $7 $8 $9 X,Y pos of 4 corners*
0 Add a 4 corners polygon primitive as box body*
4,1,4,$2,$3,$4,$5,$6,$7,$8,$9,$2,$3,0*
0 Add four circle primitives for the rounded corners*
1,1,$1+$1,$2,$3*
1,1,$1+$1,$4,$5*
1,1,$1+$1,$6,$7*
1,1,$1+$1,$8,$9*
0 Add four rect primitives between the rounded corners*
20,1,$1+$1,$2,$3,$4,$5,0*
20,1,$1+$1,$4,$5,$6,$7,0*
20,1,$1+$1,$6,$7,$8,$9,0*
20,1,$1+$1,$8,$9,$2,$3,0*%
%AMHorizOval*
0 Thick line with rounded ends*
0 $1 width*
0 $2 $3 position (X,Y) of the first rounded end (center of the circle)*
0 $4 $5 position (X,Y) of the second rounded end (center of the circle)*
0 Add line between two ends*
20,1,$1,$2,$3,$4,$5,0*
0 Add two circle primitives to create the rounded ends*
1,1,$1,$2,$3*
1,1,$1,$4,$5*%
%AMRotRect*
0 Rectangle, with rotation*
0 The origin of the aperture is its center*
0 $1 length*
0 $2 width*
0 $3 Rotation angle, in degrees counterclockwise*
0 Add horizontal line*
21,1,$1,$2,0,0,$3*%
G04 Aperture macros list end*
%TA.AperFunction,ComponentPad*%
%ADD10C,0.900000*%
%TD*%
%TA.AperFunction,ComponentPad*%
%ADD11C,8.600000*%
%TD*%
%TA.AperFunction,ComponentPad*%
%ADD12RoundRect,0.250000X-0.600000X-0.750000X0.600000X-0.750000X0.600000X0.750000X-0.600000X0.750000X0*%
%TD*%
%TA.AperFunction,ComponentPad*%
%ADD13O,1.700000X2.000000*%
%TD*%
%TA.AperFunction,ComponentPad*%
%ADD14RotRect,4.400000X1.800000X60.000000*%
%TD*%
%TA.AperFunction,ComponentPad*%
%ADD15HorizOval,1.800000X0.550000X0.952628X-0.550000X-0.952628X0*%
%TD*%
%TA.AperFunction,ComponentPad*%
%ADD16HorizOval,1.800000X-0.952628X0.550000X0.952628X-0.550000X0*%
%TD*%
%TA.AperFunction,ViaPad*%
%ADD17C,0.800000*%
%TD*%
G04 APERTURE END LIST*
D10*
%TO.P,J5,1,Pin_1*%
%TO.N,Net-(J5-Pin_1)*%
X104239024Y-97518461D03*
X105183605Y-95238042D03*
X105183605Y-99798880D03*
X107464024Y-94293461D03*
D11*
X107464024Y-97518461D03*
D10*
X107464024Y-100743461D03*
X109744443Y-95238042D03*
X109744443Y-99798880D03*
X110689024Y-97518461D03*
%TD*%
%TO.P,J2,1,Pin_1*%
%TO.N,Net-(J2-Pin_1)*%
X29239024Y-82518461D03*
X30183605Y-80238042D03*
X30183605Y-84798880D03*
X32464024Y-79293461D03*
D11*
X32464024Y-82518461D03*
D10*
X32464024Y-85743461D03*
X34744443Y-80238042D03*
X34744443Y-84798880D03*
X35689024Y-82518461D03*
%TD*%
%TO.P,J3,1,Pin_1*%
%TO.N,Net-(J3-Pin_1)*%
X29239024Y-97518461D03*
X30183605Y-95238042D03*
X30183605Y-99798880D03*
X32464024Y-94293461D03*
D11*
X32464024Y-97518461D03*
D10*
X32464024Y-100743461D03*
X34744443Y-95238042D03*
X34744443Y-99798880D03*
X35689024Y-97518461D03*
%TD*%
D12*
%TO.P,J6,1,Pin_1*%
%TO.N,VDD*%
X87750000Y-98200000D03*
D13*
%TO.P,J6,2,Pin_2*%
%TO.N,GND*%
X90250000Y-98200000D03*
%TD*%
D14*
%TO.P,J1,1*%
%TO.N,VDD*%
X46261858Y-91133080D03*
D15*
%TO.P,J1,2*%
%TO.N,GND*%
X51284805Y-94033080D03*
D16*
%TO.P,J1,3*%
%TO.N,N/C*%
X51259934Y-88476158D03*
%TD*%
D10*
%TO.P,J4,1,Pin_1*%
%TO.N,Net-(J4-Pin_1)*%
X104239024Y-82518461D03*
X105183605Y-80238042D03*
X105183605Y-84798880D03*
X107464024Y-79293461D03*
D11*
X107464024Y-82518461D03*
D10*
X107464024Y-85743461D03*
X109744443Y-80238042D03*
X109744443Y-84798880D03*
X110689024Y-82518461D03*
%TD*%
D17*
%TO.N,VDD*%
X43000000Y-30000000D03*
X40000000Y-100500000D03*
X33500000Y-58500000D03*
X40000000Y-85500000D03*
X40000000Y-76500000D03*
X103000000Y-78000000D03*
X109000000Y-60500000D03*
X100500000Y-31000000D03*
X100000000Y-86000000D03*
X84000000Y-98000000D03*
X100000000Y-100500000D03*
%TD*%
%TA.AperFunction,Conductor*%
%TO.N,VDD*%
G36*
X95136142Y-21559649D02*
G01*
X95387534Y-21580575D01*
X95457357Y-21586387D01*
X95464097Y-21587322D01*
X95558378Y-21605732D01*
X95780457Y-21649097D01*
X95787044Y-21650762D01*
X96094748Y-21746831D01*
X96101097Y-21749203D01*
X96396418Y-21878407D01*
X96402479Y-21881466D01*
X96681863Y-22042248D01*
X96687554Y-22045952D01*
X96948476Y-22236990D01*
X96951850Y-22239645D01*
X97902335Y-23042864D01*
X97906755Y-23046599D01*
X98838916Y-23882626D01*
X99746043Y-24745751D01*
X100627349Y-25635224D01*
X101482069Y-26550275D01*
X102309462Y-27490107D01*
X103108809Y-28453907D01*
X103879415Y-29440836D01*
X104620613Y-30450038D01*
X105331759Y-31480637D01*
X106012236Y-32531740D01*
X106661452Y-33602432D01*
X107278845Y-34691785D01*
X107863878Y-35798853D01*
X108416043Y-36922676D01*
X108934862Y-38062277D01*
X109419884Y-39216668D01*
X109870688Y-40384846D01*
X110286882Y-41565797D01*
X110668105Y-42758497D01*
X111014027Y-43961910D01*
X111324347Y-45174991D01*
X111598796Y-46396687D01*
X111837135Y-47625938D01*
X112039158Y-48861677D01*
X112204689Y-50102831D01*
X112333585Y-51348323D01*
X112425733Y-52597072D01*
X112481054Y-53847992D01*
X112499102Y-55073047D01*
X112498655Y-55075423D01*
X112498812Y-55108633D01*
X112498812Y-55341748D01*
X112481760Y-56318463D01*
X112481263Y-56320885D01*
X112481313Y-56341750D01*
X112481388Y-56341929D01*
X112490825Y-56366074D01*
X112487070Y-56367541D01*
X112496744Y-56385383D01*
X112499500Y-56411381D01*
X112499500Y-82117936D01*
X112479815Y-82184975D01*
X112427011Y-82230730D01*
X112357853Y-82240674D01*
X112294297Y-82211649D01*
X112256523Y-82152871D01*
X112251625Y-82123499D01*
X112250018Y-82087723D01*
X112250018Y-82087714D01*
X112192139Y-81660435D01*
X112096192Y-81240064D01*
X111962950Y-80829986D01*
X111800657Y-80450282D01*
X111793490Y-80433513D01*
X111793486Y-80433505D01*
X111791381Y-80429594D01*
X111589161Y-80053806D01*
X111565270Y-80017612D01*
X111351629Y-79693959D01*
X111351619Y-79693946D01*
X111082798Y-79356853D01*
X111082786Y-79356840D01*
X110784818Y-79045191D01*
X110784817Y-79045190D01*
X110784814Y-79045187D01*
X110556411Y-78845637D01*
X110460109Y-78761500D01*
X110460092Y-78761487D01*
X110111280Y-78508060D01*
X110111275Y-78508057D01*
X110111271Y-78508054D01*
X109741124Y-78286901D01*
X109741119Y-78286898D01*
X109741117Y-78286897D01*
X109352651Y-78099821D01*
X109352637Y-78099815D01*
X108948968Y-77948316D01*
X108948943Y-77948308D01*
X108533319Y-77833603D01*
X108109067Y-77756612D01*
X108109064Y-77756611D01*
X108109060Y-77756611D01*
X107679615Y-77717961D01*
X107248433Y-77717961D01*
X106818988Y-77756611D01*
X106818984Y-77756611D01*
X106818980Y-77756612D01*
X106394728Y-77833603D01*
X105979104Y-77948308D01*
X105979079Y-77948316D01*
X105575410Y-78099815D01*
X105575396Y-78099821D01*
X105186930Y-78286897D01*
X105186928Y-78286898D01*
X104816767Y-78508060D01*
X104467955Y-78761487D01*
X104467938Y-78761500D01*
X104143234Y-79045187D01*
X104143229Y-79045191D01*
X103845261Y-79356840D01*
X103845249Y-79356853D01*
X103576428Y-79693946D01*
X103576418Y-79693959D01*
X103338891Y-80053798D01*
X103338891Y-80053799D01*
X103134561Y-80433505D01*
X103134557Y-80433513D01*
X102965100Y-80829980D01*
X102965097Y-80829988D01*
X102831854Y-81240069D01*
X102735909Y-81660433D01*
X102678030Y-82087714D01*
X102678029Y-82087723D01*
X102658685Y-82518457D01*
X102658685Y-82518464D01*
X102678029Y-82949198D01*
X102678030Y-82949207D01*
X102735909Y-83376488D01*
X102831854Y-83796852D01*
X102965097Y-84206933D01*
X102965100Y-84206941D01*
X103134557Y-84603408D01*
X103134561Y-84603416D01*
X103134563Y-84603419D01*
X103338887Y-84983116D01*
X103338891Y-84983122D01*
X103338891Y-84983123D01*
X103576418Y-85342962D01*
X103576428Y-85342975D01*
X103845249Y-85680068D01*
X103845259Y-85680079D01*
X103845260Y-85680080D01*
X104143234Y-85991735D01*
X104467944Y-86275426D01*
X104816777Y-86528868D01*
X105186924Y-86750021D01*
X105186927Y-86750022D01*
X105186928Y-86750023D01*
X105186930Y-86750024D01*
X105575396Y-86937100D01*
X105575410Y-86937106D01*
X105979079Y-87088605D01*
X105979083Y-87088606D01*
X105979093Y-87088610D01*
X106394735Y-87203320D01*
X106818988Y-87280311D01*
X107248433Y-87318961D01*
X107248440Y-87318961D01*
X107679608Y-87318961D01*
X107679615Y-87318961D01*
X108109060Y-87280311D01*
X108533313Y-87203320D01*
X108948955Y-87088610D01*
X109352643Y-86937104D01*
X109741124Y-86750021D01*
X110111271Y-86528868D01*
X110460104Y-86275426D01*
X110784814Y-85991735D01*
X111082788Y-85680080D01*
X111103413Y-85654218D01*
X111219212Y-85509008D01*
X111351625Y-85342968D01*
X111589161Y-84983116D01*
X111793485Y-84603419D01*
X111962950Y-84206936D01*
X112096192Y-83796858D01*
X112192139Y-83376487D01*
X112250018Y-82949208D01*
X112251625Y-82913421D01*
X112274297Y-82847333D01*
X112329101Y-82803993D01*
X112398636Y-82797162D01*
X112460825Y-82829010D01*
X112495925Y-82889423D01*
X112499500Y-82918985D01*
X112499500Y-97117936D01*
X112479815Y-97184975D01*
X112427011Y-97230730D01*
X112357853Y-97240674D01*
X112294297Y-97211649D01*
X112256523Y-97152871D01*
X112251625Y-97123499D01*
X112250018Y-97087723D01*
X112250018Y-97087714D01*
X112192139Y-96660435D01*
X112096192Y-96240064D01*
X111962950Y-95829986D01*
X111887628Y-95653762D01*
X111793490Y-95433513D01*
X111793486Y-95433505D01*
X111793485Y-95433503D01*
X111589161Y-95053806D01*
X111589156Y-95053798D01*
X111351629Y-94693959D01*
X111351619Y-94693946D01*
X111082798Y-94356853D01*
X111082786Y-94356840D01*
X111063806Y-94336989D01*
X110784814Y-94045187D01*
X110536368Y-93828126D01*
X110460109Y-93761500D01*
X110460092Y-93761487D01*
X110111280Y-93508060D01*
X110111275Y-93508057D01*
X110111271Y-93508054D01*
X109741124Y-93286901D01*
X109741119Y-93286898D01*
X109741117Y-93286897D01*
X109352651Y-93099821D01*
X109352637Y-93099815D01*
X108948968Y-92948316D01*
X108948943Y-92948308D01*
X108533319Y-92833603D01*
X108109067Y-92756612D01*
X108109064Y-92756611D01*
X108109060Y-92756611D01*
X107679615Y-92717961D01*
X107248433Y-92717961D01*
X106818988Y-92756611D01*
X106818984Y-92756611D01*
X106818980Y-92756612D01*
X106394728Y-92833603D01*
X105979104Y-92948308D01*
X105979079Y-92948316D01*
X105575410Y-93099815D01*
X105575396Y-93099821D01*
X105186930Y-93286897D01*
X105186928Y-93286898D01*
X104816767Y-93508060D01*
X104467955Y-93761487D01*
X104467938Y-93761500D01*
X104143234Y-94045187D01*
X104143229Y-94045191D01*
X103845261Y-94356840D01*
X103845249Y-94356853D01*
X103576428Y-94693946D01*
X103576418Y-94693959D01*
X103338891Y-95053798D01*
X103338891Y-95053799D01*
X103134561Y-95433505D01*
X103134557Y-95433513D01*
X102965100Y-95829980D01*
X102965097Y-95829988D01*
X102831854Y-96240069D01*
X102735909Y-96660433D01*
X102678030Y-97087714D01*
X102678029Y-97087723D01*
X102658685Y-97518457D01*
X102658685Y-97518464D01*
X102678029Y-97949198D01*
X102678030Y-97949207D01*
X102735909Y-98376488D01*
X102831854Y-98796852D01*
X102965097Y-99206933D01*
X102965100Y-99206941D01*
X103134557Y-99603408D01*
X103134561Y-99603416D01*
X103180888Y-99689505D01*
X103338887Y-99983116D01*
X103338891Y-99983122D01*
X103338891Y-99983123D01*
X103576418Y-100342962D01*
X103576428Y-100342975D01*
X103845249Y-100680068D01*
X103845261Y-100680081D01*
X104020382Y-100863243D01*
X104143234Y-100991735D01*
X104467944Y-101275426D01*
X104816777Y-101528868D01*
X105186924Y-101750021D01*
X105186927Y-101750022D01*
X105186928Y-101750023D01*
X105186930Y-101750024D01*
X105575396Y-101937100D01*
X105575410Y-101937106D01*
X105979079Y-102088605D01*
X105979083Y-102088606D01*
X105979093Y-102088610D01*
X106394735Y-102203320D01*
X106818988Y-102280311D01*
X107248433Y-102318961D01*
X107248440Y-102318961D01*
X107679608Y-102318961D01*
X107679615Y-102318961D01*
X108109060Y-102280311D01*
X108533313Y-102203320D01*
X108948955Y-102088610D01*
X109352643Y-101937104D01*
X109741124Y-101750021D01*
X110111271Y-101528868D01*
X110460104Y-101275426D01*
X110784814Y-100991735D01*
X111082788Y-100680080D01*
X111187522Y-100548748D01*
X111317920Y-100385233D01*
X111351625Y-100342968D01*
X111589161Y-99983116D01*
X111793485Y-99603419D01*
X111962950Y-99206936D01*
X112096192Y-98796858D01*
X112192139Y-98376487D01*
X112250018Y-97949208D01*
X112251625Y-97913421D01*
X112274297Y-97847333D01*
X112329101Y-97803993D01*
X112398636Y-97797162D01*
X112460825Y-97829010D01*
X112495925Y-97889423D01*
X112499500Y-97918985D01*
X112499500Y-98598560D01*
X112499434Y-98601424D01*
X112482570Y-98966165D01*
X112482042Y-98971870D01*
X112431796Y-99332069D01*
X112430743Y-99337701D01*
X112347479Y-99691720D01*
X112345911Y-99697231D01*
X112230332Y-100042072D01*
X112228265Y-100047407D01*
X112154814Y-100213758D01*
X112081366Y-100380103D01*
X112078812Y-100385232D01*
X111901840Y-100702955D01*
X111898824Y-100707826D01*
X111693287Y-101007875D01*
X111689834Y-101012448D01*
X111457498Y-101292239D01*
X111453638Y-101296473D01*
X111196473Y-101553638D01*
X111192239Y-101557498D01*
X110912448Y-101789834D01*
X110907875Y-101793287D01*
X110607826Y-101998824D01*
X110602955Y-102001840D01*
X110285232Y-102178812D01*
X110280103Y-102181366D01*
X110113758Y-102254814D01*
X109947411Y-102328264D01*
X109942072Y-102330332D01*
X109597231Y-102445911D01*
X109591720Y-102447479D01*
X109237701Y-102530743D01*
X109232069Y-102531796D01*
X108871870Y-102582042D01*
X108866165Y-102582570D01*
X108501424Y-102599434D01*
X108498560Y-102599500D01*
X31501783Y-102599500D01*
X31498919Y-102599434D01*
X31134177Y-102582570D01*
X31128472Y-102582042D01*
X30768272Y-102531796D01*
X30762640Y-102530743D01*
X30408622Y-102447479D01*
X30403111Y-102445911D01*
X30177218Y-102370200D01*
X30058262Y-102330331D01*
X30052942Y-102328269D01*
X29720227Y-102181362D01*
X29715108Y-102178813D01*
X29715106Y-102178812D01*
X29553155Y-102088605D01*
X29397385Y-102001841D01*
X29392514Y-101998825D01*
X29092465Y-101793288D01*
X29087902Y-101789843D01*
X28808099Y-101557497D01*
X28803867Y-101553639D01*
X28546702Y-101296474D01*
X28542842Y-101292240D01*
X28310496Y-101012435D01*
X28307053Y-101007876D01*
X28101515Y-100707827D01*
X28098499Y-100702956D01*
X28082694Y-100674581D01*
X27921522Y-100385222D01*
X27918983Y-100380122D01*
X27772067Y-100047389D01*
X27770008Y-100042073D01*
X27750249Y-99983122D01*
X27654426Y-99697225D01*
X27652863Y-99691733D01*
X27569594Y-99337694D01*
X27568543Y-99332070D01*
X27568543Y-99332069D01*
X27518295Y-98971857D01*
X27517769Y-98966164D01*
X27500909Y-98601488D01*
X27500843Y-98598624D01*
X27500843Y-98447124D01*
X27520528Y-98380085D01*
X27573332Y-98334330D01*
X27642490Y-98324386D01*
X27706046Y-98353411D01*
X27743820Y-98412189D01*
X27745731Y-98419524D01*
X27752688Y-98450000D01*
X27831854Y-98796852D01*
X27965097Y-99206933D01*
X27965100Y-99206941D01*
X28134557Y-99603408D01*
X28134561Y-99603416D01*
X28180888Y-99689505D01*
X28338887Y-99983116D01*
X28338891Y-99983122D01*
X28338891Y-99983123D01*
X28576418Y-100342962D01*
X28576428Y-100342975D01*
X28845249Y-100680068D01*
X28845261Y-100680081D01*
X29020382Y-100863243D01*
X29143234Y-100991735D01*
X29467944Y-101275426D01*
X29816777Y-101528868D01*
X30186924Y-101750021D01*
X30186927Y-101750022D01*
X30186928Y-101750023D01*
X30186930Y-101750024D01*
X30575396Y-101937100D01*
X30575410Y-101937106D01*
X30979079Y-102088605D01*
X30979083Y-102088606D01*
X30979093Y-102088610D01*
X31394735Y-102203320D01*
X31818988Y-102280311D01*
X32248433Y-102318961D01*
X32248440Y-102318961D01*
X32679608Y-102318961D01*
X32679615Y-102318961D01*
X33109060Y-102280311D01*
X33533313Y-102203320D01*
X33948955Y-102088610D01*
X34352643Y-101937104D01*
X34741124Y-101750021D01*
X35111271Y-101528868D01*
X35460104Y-101275426D01*
X35784814Y-100991735D01*
X36082788Y-100680080D01*
X36187522Y-100548748D01*
X36317920Y-100385233D01*
X36351625Y-100342968D01*
X36589161Y-99983116D01*
X36793485Y-99603419D01*
X36962950Y-99206936D01*
X37096192Y-98796858D01*
X37192139Y-98376487D01*
X37249911Y-97950000D01*
X86400000Y-97950000D01*
X87316314Y-97950000D01*
X87290507Y-97990156D01*
X87250000Y-98128111D01*
X87250000Y-98271889D01*
X87290507Y-98409844D01*
X87316314Y-98450000D01*
X86400001Y-98450000D01*
X86400001Y-98999986D01*
X86410494Y-99102697D01*
X86465641Y-99269119D01*
X86465643Y-99269124D01*
X86557684Y-99418345D01*
X86681654Y-99542315D01*
X86830875Y-99634356D01*
X86830880Y-99634358D01*
X86997302Y-99689505D01*
X86997309Y-99689506D01*
X87100019Y-99699999D01*
X87499999Y-99699999D01*
X87500000Y-99699998D01*
X87500000Y-98635501D01*
X87607685Y-98684680D01*
X87714237Y-98700000D01*
X87785763Y-98700000D01*
X87892315Y-98684680D01*
X88000000Y-98635501D01*
X88000000Y-99699999D01*
X88399972Y-99699999D01*
X88399986Y-99699998D01*
X88502697Y-99689505D01*
X88669119Y-99634358D01*
X88669124Y-99634356D01*
X88818345Y-99542315D01*
X88942315Y-99418345D01*
X89037815Y-99263516D01*
X89089763Y-99216792D01*
X89158726Y-99205569D01*
X89222808Y-99233413D01*
X89231035Y-99240931D01*
X89378599Y-99388495D01*
X89378602Y-99388497D01*
X89378603Y-99388498D01*
X89572165Y-99524032D01*
X89572167Y-99524033D01*
X89572170Y-99524035D01*
X89786337Y-99623903D01*
X89786343Y-99623904D01*
X89786344Y-99623905D01*
X89825356Y-99634358D01*
X90014592Y-99685063D01*
X90202918Y-99701539D01*
X90249999Y-99705659D01*
X90250000Y-99705659D01*
X90250001Y-99705659D01*
X90289234Y-99702226D01*
X90485408Y-99685063D01*
X90713663Y-99623903D01*
X90927829Y-99524035D01*
X91121401Y-99388495D01*
X91288495Y-99221401D01*
X91424035Y-99027829D01*
X91523903Y-98813663D01*
X91585063Y-98585408D01*
X91600500Y-98408966D01*
X91600500Y-97991034D01*
X91585063Y-97814592D01*
X91523903Y-97586337D01*
X91424035Y-97372171D01*
X91371617Y-97297309D01*
X91288494Y-97178597D01*
X91121402Y-97011506D01*
X91121395Y-97011501D01*
X90927834Y-96875967D01*
X90927830Y-96875965D01*
X90888626Y-96857684D01*
X90713663Y-96776097D01*
X90713659Y-96776096D01*
X90713655Y-96776094D01*
X90485413Y-96714938D01*
X90485403Y-96714936D01*
X90250001Y-96694341D01*
X90249999Y-96694341D01*
X90014596Y-96714936D01*
X90014586Y-96714938D01*
X89786344Y-96776094D01*
X89786335Y-96776098D01*
X89572171Y-96875964D01*
X89572169Y-96875965D01*
X89378597Y-97011505D01*
X89231035Y-97159068D01*
X89169712Y-97192553D01*
X89100020Y-97187569D01*
X89044087Y-97145697D01*
X89037815Y-97136484D01*
X88942315Y-96981654D01*
X88818345Y-96857684D01*
X88669124Y-96765643D01*
X88669119Y-96765641D01*
X88502697Y-96710494D01*
X88502690Y-96710493D01*
X88399986Y-96700000D01*
X88000000Y-96700000D01*
X88000000Y-97764498D01*
X87892315Y-97715320D01*
X87785763Y-97700000D01*
X87714237Y-97700000D01*
X87607685Y-97715320D01*
X87500000Y-97764498D01*
X87500000Y-96700000D01*
X87100028Y-96700000D01*
X87100012Y-96700001D01*
X86997302Y-96710494D01*
X86830880Y-96765641D01*
X86830875Y-96765643D01*
X86681654Y-96857684D01*
X86557684Y-96981654D01*
X86465643Y-97130875D01*
X86465641Y-97130880D01*
X86410494Y-97297302D01*
X86410493Y-97297309D01*
X86400000Y-97400013D01*
X86400000Y-97950000D01*
X37249911Y-97950000D01*
X37250018Y-97949208D01*
X37269363Y-97518461D01*
X37250018Y-97087714D01*
X37192139Y-96660435D01*
X37096192Y-96240064D01*
X36962950Y-95829986D01*
X36887628Y-95653762D01*
X36793490Y-95433513D01*
X36793486Y-95433505D01*
X36793485Y-95433503D01*
X36589161Y-95053806D01*
X36589156Y-95053798D01*
X36531082Y-94965819D01*
X49329382Y-94965819D01*
X49335617Y-95053799D01*
X49346236Y-95203622D01*
X49403037Y-95435157D01*
X49498151Y-95653762D01*
X49628838Y-95853145D01*
X49791348Y-96027580D01*
X49791351Y-96027582D01*
X49980988Y-96172035D01*
X49980990Y-96172036D01*
X49980994Y-96172039D01*
X50079019Y-96223214D01*
X50192321Y-96282366D01*
X50192324Y-96282367D01*
X50192328Y-96282369D01*
X50419268Y-96355397D01*
X50655285Y-96389020D01*
X50893590Y-96382274D01*
X51027600Y-96355371D01*
X51127320Y-96335353D01*
X51127323Y-96335352D01*
X51127324Y-96335351D01*
X51127327Y-96335351D01*
X51349772Y-96249601D01*
X51554525Y-96127492D01*
X51735697Y-95972535D01*
X51888074Y-95789188D01*
X53077422Y-93729176D01*
X53153320Y-93567409D01*
X53216651Y-93337574D01*
X53240228Y-93100342D01*
X53223374Y-92862539D01*
X53166573Y-92631004D01*
X53071459Y-92412398D01*
X52940770Y-92213013D01*
X52778263Y-92038581D01*
X52778262Y-92038580D01*
X52778261Y-92038579D01*
X52778258Y-92038577D01*
X52588621Y-91894124D01*
X52588612Y-91894119D01*
X52377288Y-91783793D01*
X52150343Y-91710763D01*
X52111005Y-91705159D01*
X51914325Y-91677140D01*
X51914320Y-91677140D01*
X51676018Y-91683886D01*
X51442289Y-91730806D01*
X51442286Y-91730807D01*
X51219838Y-91816559D01*
X51219830Y-91816563D01*
X51015087Y-91938666D01*
X51015085Y-91938668D01*
X50833913Y-92093626D01*
X50833910Y-92093628D01*
X50833908Y-92093631D01*
X50681540Y-92276966D01*
X50681533Y-92276975D01*
X50206464Y-93099821D01*
X49492188Y-94336984D01*
X49492186Y-94336989D01*
X49416293Y-94498743D01*
X49416291Y-94498749D01*
X49416290Y-94498752D01*
X49382300Y-94622103D01*
X49352958Y-94728588D01*
X49329382Y-94965810D01*
X49329382Y-94965819D01*
X36531082Y-94965819D01*
X36351629Y-94693959D01*
X36351619Y-94693946D01*
X36082798Y-94356853D01*
X36082786Y-94356840D01*
X36063806Y-94336989D01*
X35784814Y-94045187D01*
X35536368Y-93828126D01*
X35460109Y-93761500D01*
X35460092Y-93761487D01*
X35111280Y-93508060D01*
X35111275Y-93508057D01*
X35111271Y-93508054D01*
X34741124Y-93286901D01*
X34741119Y-93286898D01*
X34741117Y-93286897D01*
X34352651Y-93099821D01*
X34352637Y-93099815D01*
X33948968Y-92948316D01*
X33948943Y-92948308D01*
X33533319Y-92833603D01*
X33109067Y-92756612D01*
X33109064Y-92756611D01*
X33109060Y-92756611D01*
X32679615Y-92717961D01*
X32248433Y-92717961D01*
X31818988Y-92756611D01*
X31818984Y-92756611D01*
X31818980Y-92756612D01*
X31394728Y-92833603D01*
X30979104Y-92948308D01*
X30979079Y-92948316D01*
X30575410Y-93099815D01*
X30575396Y-93099821D01*
X30186930Y-93286897D01*
X30186928Y-93286898D01*
X29816767Y-93508060D01*
X29467955Y-93761487D01*
X29467938Y-93761500D01*
X29143234Y-94045187D01*
X29143229Y-94045191D01*
X28845261Y-94356840D01*
X28845249Y-94356853D01*
X28576428Y-94693946D01*
X28576418Y-94693959D01*
X28338891Y-95053798D01*
X28338891Y-95053799D01*
X28134561Y-95433505D01*
X28134557Y-95433513D01*
X27965100Y-95829980D01*
X27965097Y-95829988D01*
X27831854Y-96240069D01*
X27745734Y-96617389D01*
X27711625Y-96678368D01*
X27649964Y-96711226D01*
X27580327Y-96705531D01*
X27524823Y-96663091D01*
X27501075Y-96597381D01*
X27500843Y-96589797D01*
X27500843Y-92576315D01*
X43877435Y-92576315D01*
X43894506Y-92719075D01*
X43951104Y-92851248D01*
X44042644Y-92962115D01*
X44042648Y-92962118D01*
X44091013Y-92997434D01*
X44091018Y-92997437D01*
X44695351Y-93346348D01*
X44695352Y-93346348D01*
X45237508Y-92407305D01*
X45241884Y-92423636D01*
X45310894Y-92529902D01*
X45409365Y-92609641D01*
X45527657Y-92655050D01*
X45654191Y-92661681D01*
X45670519Y-92657305D01*
X45128364Y-93596348D01*
X45128364Y-93596349D01*
X45732693Y-93945259D01*
X45787470Y-93969491D01*
X45787476Y-93969493D01*
X45929258Y-93993334D01*
X45929260Y-93993335D01*
X46072020Y-93976264D01*
X46204193Y-93919666D01*
X46315060Y-93828126D01*
X46315063Y-93828122D01*
X46350379Y-93779757D01*
X46350382Y-93779752D01*
X47349293Y-92049586D01*
X47349293Y-92049585D01*
X46483268Y-91549585D01*
X46733268Y-91116573D01*
X47599292Y-91616572D01*
X47599293Y-91616572D01*
X48598204Y-89886411D01*
X48622436Y-89831634D01*
X48622438Y-89831628D01*
X48646279Y-89689846D01*
X48646280Y-89689844D01*
X48629209Y-89547084D01*
X48572611Y-89414911D01*
X48481071Y-89304044D01*
X48481067Y-89304041D01*
X48432702Y-89268725D01*
X48432697Y-89268722D01*
X47828363Y-88919810D01*
X47828362Y-88919810D01*
X47286206Y-89858851D01*
X47281832Y-89842524D01*
X47212822Y-89736258D01*
X47114351Y-89656519D01*
X46996059Y-89611110D01*
X46869526Y-89604479D01*
X46853192Y-89608855D01*
X47395350Y-88669810D01*
X47395350Y-88669809D01*
X46791022Y-88320900D01*
X46736245Y-88296668D01*
X46736239Y-88296666D01*
X46594457Y-88272825D01*
X46594455Y-88272824D01*
X46451695Y-88289895D01*
X46319522Y-88346493D01*
X46208655Y-88438033D01*
X46208652Y-88438037D01*
X46173336Y-88486402D01*
X46173333Y-88486407D01*
X45174421Y-90216572D01*
X45174421Y-90216573D01*
X46040447Y-90716573D01*
X45790447Y-91149585D01*
X44924422Y-90649586D01*
X44924421Y-90649586D01*
X43925511Y-92379748D01*
X43901279Y-92434525D01*
X43901277Y-92434531D01*
X43877436Y-92576313D01*
X43877435Y-92576315D01*
X27500843Y-92576315D01*
X27500843Y-87846642D01*
X48903994Y-87846642D01*
X48910740Y-88084944D01*
X48957660Y-88318673D01*
X48957661Y-88318676D01*
X49043413Y-88541124D01*
X49043417Y-88541132D01*
X49120156Y-88669809D01*
X49165522Y-88745878D01*
X49269435Y-88867371D01*
X49314286Y-88919810D01*
X49320479Y-88927050D01*
X49503826Y-89079427D01*
X49503829Y-89079429D01*
X49503832Y-89079431D01*
X50155928Y-89455918D01*
X51563838Y-90268775D01*
X51652631Y-90310435D01*
X51725598Y-90344670D01*
X51725599Y-90344670D01*
X51725605Y-90344673D01*
X51955440Y-90408004D01*
X52192672Y-90431581D01*
X52430475Y-90414727D01*
X52662010Y-90357926D01*
X52880616Y-90262812D01*
X53080001Y-90132123D01*
X53254433Y-89969616D01*
X53398893Y-89779969D01*
X53509223Y-89568635D01*
X53582251Y-89341695D01*
X53615874Y-89105678D01*
X53609128Y-88867373D01*
X53584737Y-88745875D01*
X53562207Y-88633642D01*
X53562206Y-88633639D01*
X53553202Y-88610281D01*
X53476455Y-88411191D01*
X53354346Y-88206438D01*
X53199388Y-88025266D01*
X53016042Y-87872889D01*
X53016041Y-87872888D01*
X53016038Y-87872886D01*
X51856314Y-87203320D01*
X50956030Y-86683541D01*
X50905130Y-86659659D01*
X50794270Y-86607646D01*
X50794266Y-86607644D01*
X50794262Y-86607643D01*
X50564428Y-86544312D01*
X50564427Y-86544311D01*
X50564425Y-86544311D01*
X50327198Y-86520735D01*
X50327196Y-86520735D01*
X50232074Y-86527476D01*
X50089389Y-86537589D01*
X49857860Y-86594389D01*
X49857858Y-86594389D01*
X49857857Y-86594390D01*
X49767719Y-86633608D01*
X49639251Y-86689504D01*
X49439868Y-86820191D01*
X49265433Y-86982701D01*
X49265431Y-86982704D01*
X49120978Y-87172341D01*
X49120973Y-87172350D01*
X49010647Y-87383674D01*
X48937617Y-87610619D01*
X48926409Y-87689293D01*
X48903994Y-87846638D01*
X48903994Y-87846641D01*
X48903994Y-87846642D01*
X27500843Y-87846642D01*
X27500843Y-83447124D01*
X27520528Y-83380085D01*
X27573332Y-83334330D01*
X27642490Y-83324386D01*
X27706046Y-83353411D01*
X27743820Y-83412189D01*
X27745731Y-83419524D01*
X27770411Y-83527654D01*
X27831854Y-83796852D01*
X27965097Y-84206933D01*
X27965100Y-84206941D01*
X28134557Y-84603408D01*
X28134561Y-84603416D01*
X28134563Y-84603419D01*
X28338887Y-84983116D01*
X28338891Y-84983122D01*
X28338891Y-84983123D01*
X28576418Y-85342962D01*
X28576428Y-85342975D01*
X28845249Y-85680068D01*
X28845259Y-85680079D01*
X28845260Y-85680080D01*
X29143234Y-85991735D01*
X29467944Y-86275426D01*
X29816777Y-86528868D01*
X30186924Y-86750021D01*
X30186927Y-86750022D01*
X30186928Y-86750023D01*
X30186930Y-86750024D01*
X30575396Y-86937100D01*
X30575410Y-86937106D01*
X30979079Y-87088605D01*
X30979083Y-87088606D01*
X30979093Y-87088610D01*
X31394735Y-87203320D01*
X31818988Y-87280311D01*
X32248433Y-87318961D01*
X32248440Y-87318961D01*
X32679608Y-87318961D01*
X32679615Y-87318961D01*
X33109060Y-87280311D01*
X33533313Y-87203320D01*
X33948955Y-87088610D01*
X34352643Y-86937104D01*
X34741124Y-86750021D01*
X35111271Y-86528868D01*
X35460104Y-86275426D01*
X35784814Y-85991735D01*
X36082788Y-85680080D01*
X36103413Y-85654218D01*
X36219212Y-85509008D01*
X36351625Y-85342968D01*
X36589161Y-84983116D01*
X36793485Y-84603419D01*
X36962950Y-84206936D01*
X37096192Y-83796858D01*
X37192139Y-83376487D01*
X37250018Y-82949208D01*
X37269363Y-82518461D01*
X37250018Y-82087714D01*
X37192139Y-81660435D01*
X37096192Y-81240064D01*
X36962950Y-80829986D01*
X36800657Y-80450282D01*
X36793490Y-80433513D01*
X36793486Y-80433505D01*
X36791381Y-80429594D01*
X36589161Y-80053806D01*
X36565270Y-80017612D01*
X36351629Y-79693959D01*
X36351619Y-79693946D01*
X36082798Y-79356853D01*
X36082786Y-79356840D01*
X35784818Y-79045191D01*
X35784817Y-79045190D01*
X35784814Y-79045187D01*
X35556411Y-78845637D01*
X35460109Y-78761500D01*
X35460092Y-78761487D01*
X35111280Y-78508060D01*
X35111275Y-78508057D01*
X35111271Y-78508054D01*
X34741124Y-78286901D01*
X34741119Y-78286898D01*
X34741117Y-78286897D01*
X34352651Y-78099821D01*
X34352637Y-78099815D01*
X33948968Y-77948316D01*
X33948943Y-77948308D01*
X33533319Y-77833603D01*
X33109067Y-77756612D01*
X33109064Y-77756611D01*
X33109060Y-77756611D01*
X32679615Y-77717961D01*
X32248433Y-77717961D01*
X31818988Y-77756611D01*
X31818984Y-77756611D01*
X31818980Y-77756612D01*
X31394728Y-77833603D01*
X30979104Y-77948308D01*
X30979079Y-77948316D01*
X30575410Y-78099815D01*
X30575396Y-78099821D01*
X30186930Y-78286897D01*
X30186928Y-78286898D01*
X29816767Y-78508060D01*
X29467955Y-78761487D01*
X29467938Y-78761500D01*
X29143234Y-79045187D01*
X29143229Y-79045191D01*
X28845261Y-79356840D01*
X28845249Y-79356853D01*
X28576428Y-79693946D01*
X28576418Y-79693959D01*
X28338891Y-80053798D01*
X28338891Y-80053799D01*
X28134561Y-80433505D01*
X28134557Y-80433513D01*
X27965100Y-80829980D01*
X27965097Y-80829988D01*
X27831854Y-81240069D01*
X27745734Y-81617389D01*
X27711625Y-81678368D01*
X27649964Y-81711226D01*
X27580327Y-81705531D01*
X27524823Y-81663091D01*
X27501075Y-81597381D01*
X27500843Y-81589797D01*
X27500843Y-56410862D01*
X27509283Y-56365896D01*
X27511292Y-56360733D01*
X27517216Y-56350639D01*
X27518681Y-56345858D01*
X27518704Y-56320065D01*
X27518247Y-56317881D01*
X27500843Y-55270723D01*
X27500843Y-54929367D01*
X27524128Y-53683055D01*
X27583949Y-52438037D01*
X27680255Y-51195309D01*
X27812963Y-49955940D01*
X27981960Y-48720995D01*
X28187099Y-47491538D01*
X28428204Y-46268625D01*
X28705068Y-45053309D01*
X29017453Y-43846634D01*
X29365090Y-42649639D01*
X29747679Y-41463354D01*
X30164893Y-40288799D01*
X30616372Y-39126984D01*
X31101727Y-37978908D01*
X31620542Y-36845559D01*
X32172369Y-35727913D01*
X32756735Y-34626929D01*
X33373136Y-33543556D01*
X34021043Y-32478726D01*
X34699897Y-31433353D01*
X35409116Y-30408338D01*
X36148089Y-29404562D01*
X36916181Y-28422888D01*
X37712730Y-27464161D01*
X38537051Y-26529206D01*
X39388437Y-25618826D01*
X40266153Y-24733806D01*
X41169445Y-23874905D01*
X42097537Y-23042864D01*
X42340414Y-22837646D01*
X43048007Y-22239768D01*
X43051361Y-22237128D01*
X43312466Y-22045958D01*
X43318136Y-22042266D01*
X43597534Y-21881476D01*
X43603580Y-21878425D01*
X43898914Y-21749216D01*
X43905251Y-21746848D01*
X44212964Y-21650776D01*
X44219546Y-21649112D01*
X44400429Y-21613792D01*
X44535907Y-21587338D01*
X44542642Y-21586403D01*
X44755989Y-21568644D01*
X44863857Y-21559665D01*
X44870660Y-21559473D01*
X45192894Y-21568090D01*
X45199630Y-21568641D01*
X45519001Y-21612515D01*
X45525654Y-21613805D01*
X45838198Y-21692385D01*
X45838254Y-21692399D01*
X45844753Y-21694417D01*
X46146861Y-21806787D01*
X46153103Y-21809507D01*
X46441082Y-21954304D01*
X46446982Y-21957688D01*
X46717173Y-22133042D01*
X46717352Y-22133158D01*
X46722851Y-22137172D01*
X46972376Y-22341217D01*
X46977402Y-22345810D01*
X47203066Y-22575962D01*
X47207555Y-22581074D01*
X47407866Y-22836125D01*
X47409888Y-22838849D01*
X48270777Y-24068325D01*
X48272587Y-24071063D01*
X48439007Y-24337935D01*
X48442193Y-24343707D01*
X48578571Y-24625284D01*
X48581122Y-24631357D01*
X48686773Y-24925824D01*
X48688670Y-24932154D01*
X48762402Y-25236182D01*
X48763615Y-25242678D01*
X48804595Y-25552830D01*
X48805111Y-25559418D01*
X48812872Y-25872162D01*
X48812684Y-25878767D01*
X48787139Y-26190567D01*
X48786250Y-26197115D01*
X48727691Y-26504421D01*
X48726110Y-26510837D01*
X48635196Y-26810185D01*
X48632941Y-26816396D01*
X48510711Y-27104366D01*
X48507809Y-27110303D01*
X48355640Y-27383648D01*
X48352123Y-27389242D01*
X48171752Y-27644844D01*
X48167660Y-27650032D01*
X47961120Y-27885012D01*
X47956499Y-27889736D01*
X47724698Y-28102738D01*
X47722209Y-28104906D01*
X47299281Y-28453907D01*
X47271993Y-28476425D01*
X46393973Y-29251740D01*
X45542384Y-30055997D01*
X44718180Y-30888296D01*
X43922283Y-31747704D01*
X43155585Y-32633259D01*
X42418944Y-33543970D01*
X41713186Y-34478817D01*
X41039099Y-35436753D01*
X40397440Y-36416705D01*
X39788926Y-37417577D01*
X39214239Y-38438248D01*
X38674022Y-39477574D01*
X38168881Y-40534393D01*
X37699380Y-41607521D01*
X37266046Y-42695755D01*
X36869363Y-43797879D01*
X36509776Y-44912658D01*
X36187688Y-46038843D01*
X35903458Y-47175173D01*
X35657406Y-48320377D01*
X35449807Y-49473172D01*
X35280893Y-50632267D01*
X35150853Y-51796365D01*
X35059833Y-52964162D01*
X35007936Y-54134350D01*
X34995218Y-55305619D01*
X35021694Y-56476658D01*
X35087336Y-57646156D01*
X35192068Y-58812803D01*
X35335774Y-59975293D01*
X35518293Y-61132324D01*
X35739421Y-62282600D01*
X35998909Y-63424835D01*
X36296468Y-64557748D01*
X36631765Y-65680071D01*
X37004423Y-66790549D01*
X37414025Y-67887936D01*
X37860114Y-68971005D01*
X38342189Y-70038543D01*
X38859711Y-71089355D01*
X39412100Y-72122263D01*
X39998738Y-73136112D01*
X40618968Y-74129766D01*
X41272095Y-75102113D01*
X41957388Y-76052064D01*
X42674081Y-76978555D01*
X43421369Y-77880549D01*
X44198417Y-78757037D01*
X45004355Y-79607035D01*
X45838280Y-80429594D01*
X46699259Y-81223792D01*
X47586326Y-81988739D01*
X48498491Y-82723579D01*
X49434730Y-83427490D01*
X50393995Y-84099683D01*
X51375213Y-84739406D01*
X52377285Y-85345941D01*
X53399089Y-85918611D01*
X54439480Y-86456774D01*
X55497295Y-86959827D01*
X56571347Y-87427207D01*
X57660436Y-87858391D01*
X58763341Y-88252896D01*
X59878828Y-88610281D01*
X61005647Y-88930144D01*
X62142536Y-89212129D01*
X63288224Y-89455918D01*
X64441427Y-89661240D01*
X65600854Y-89827864D01*
X66765206Y-89955604D01*
X67933180Y-90044317D01*
X69103468Y-90093903D01*
X70274761Y-90104308D01*
X71445745Y-90075518D01*
X72615111Y-90007567D01*
X73781549Y-89900531D01*
X74943752Y-89754529D01*
X76100420Y-89569725D01*
X77250258Y-89346325D01*
X78391978Y-89084581D01*
X79524301Y-88784785D01*
X80645960Y-88447273D01*
X81755699Y-88072422D01*
X82852275Y-87660652D01*
X83934461Y-87212425D01*
X85001045Y-86728242D01*
X86050832Y-86208646D01*
X87082647Y-85654218D01*
X88095336Y-85065578D01*
X89087763Y-84443387D01*
X90058818Y-83788341D01*
X91007413Y-83101172D01*
X91932487Y-82382651D01*
X92833003Y-81633583D01*
X93707954Y-80854805D01*
X94556359Y-80047190D01*
X95377269Y-79211641D01*
X96169765Y-78349096D01*
X96932958Y-77460519D01*
X97665996Y-76546905D01*
X98368056Y-75609278D01*
X99038352Y-74648686D01*
X99676136Y-73666207D01*
X100280691Y-72662939D01*
X100851341Y-71640006D01*
X101387448Y-70598553D01*
X101888411Y-69539747D01*
X102353669Y-68464773D01*
X102782701Y-67374835D01*
X103175027Y-66271153D01*
X103530207Y-65154963D01*
X103847844Y-64027514D01*
X104127582Y-62890070D01*
X104369108Y-61743903D01*
X104572152Y-60590297D01*
X104736486Y-59430543D01*
X104861926Y-58265941D01*
X104948331Y-57097794D01*
X104995606Y-55927410D01*
X104999566Y-55355852D01*
X104999665Y-55355035D01*
X104999665Y-55341754D01*
X104999869Y-55307693D01*
X104999816Y-55307539D01*
X104999665Y-55301425D01*
X104999665Y-55152697D01*
X105000500Y-55149853D01*
X105000500Y-55124529D01*
X105000683Y-55123599D01*
X105000540Y-55100000D01*
X105000541Y-55099998D01*
X105000539Y-55099995D01*
X105000498Y-55093193D01*
X105000479Y-54528987D01*
X104963226Y-53387568D01*
X104888760Y-52247973D01*
X104777159Y-51111412D01*
X104628543Y-49979097D01*
X104443069Y-48852233D01*
X104220936Y-47732018D01*
X103962379Y-46619646D01*
X103667674Y-45516299D01*
X103337135Y-44423154D01*
X102971113Y-43341372D01*
X102569998Y-42272106D01*
X102134216Y-41216493D01*
X101664232Y-40175657D01*
X101160546Y-39150706D01*
X100623694Y-38142731D01*
X100054247Y-37152804D01*
X99452812Y-36181980D01*
X98820028Y-35231292D01*
X98156570Y-34301750D01*
X97463143Y-33394346D01*
X96740485Y-32510044D01*
X95989365Y-31649787D01*
X95210584Y-30814488D01*
X94404969Y-30005038D01*
X93573379Y-29222299D01*
X92716698Y-28467102D01*
X92277548Y-28104707D01*
X92275063Y-28102542D01*
X92261225Y-28089826D01*
X92043478Y-27889736D01*
X92038869Y-27885023D01*
X91941111Y-27773806D01*
X91832317Y-27650032D01*
X91828241Y-27644862D01*
X91647855Y-27389240D01*
X91644345Y-27383656D01*
X91570839Y-27251614D01*
X91492174Y-27110305D01*
X91489274Y-27104373D01*
X91450672Y-27013428D01*
X91367041Y-26816396D01*
X91364790Y-26810193D01*
X91273872Y-26510838D01*
X91272297Y-26504446D01*
X91213731Y-26197103D01*
X91212844Y-26190569D01*
X91187299Y-25878768D01*
X91187111Y-25872163D01*
X91187111Y-25872162D01*
X91194873Y-25559401D01*
X91195388Y-25552829D01*
X91236368Y-25242675D01*
X91237578Y-25236190D01*
X91311318Y-24932135D01*
X91313204Y-24925841D01*
X91418868Y-24631336D01*
X91421406Y-24625294D01*
X91557800Y-24343682D01*
X91560973Y-24337935D01*
X91727248Y-24071294D01*
X91729025Y-24068606D01*
X92590281Y-22838605D01*
X92592266Y-22835930D01*
X92792444Y-22581048D01*
X92796911Y-22575962D01*
X93022590Y-22345793D01*
X93027605Y-22341211D01*
X93277138Y-22137159D01*
X93282635Y-22133147D01*
X93282797Y-22133042D01*
X93553023Y-21957665D01*
X93558907Y-21954290D01*
X93846893Y-21809491D01*
X93853121Y-21806777D01*
X94035636Y-21738889D01*
X94155232Y-21694405D01*
X94161734Y-21692385D01*
X94327213Y-21650781D01*
X94474342Y-21613790D01*
X94481009Y-21612498D01*
X94800348Y-21568628D01*
X94807105Y-21568074D01*
X95129339Y-21559457D01*
X95136142Y-21559649D01*
G37*
%TD.AperFunction*%
%TD*%
M02*
