%TF.GenerationSoftware,KiCad,Pcbnew,7.0.10*%
%TF.CreationDate,2024-02-19T23:02:20+00:00*%
%TF.ProjectId,Milo_RingLight,4d696c6f-5f52-4696-9e67-4c696768742e,rev?*%
%TF.SameCoordinates,Original*%
%TF.FileFunction,Profile,NP*%
%FSLAX46Y46*%
G04 Gerber Fmt 4.6, Leading zero omitted, Abs format (unit mm)*
G04 Created by KiCad (PCBNEW 7.0.10) date 2024-02-19 23:02:20*
%MOMM*%
%LPD*%
G01*
G04 APERTURE LIST*
%TA.AperFunction,Profile*%
%ADD10C,0.200000*%
%TD*%
G04 APERTURE END LIST*
D10*
X112500000Y-98600000D02*
X112500000Y-56341751D01*
X112481855Y-56341751D02*
X112499312Y-55341751D01*
X112500000Y-56341751D02*
X112481855Y-56341751D01*
X27500343Y-54929289D02*
X27500343Y-55270710D01*
X112499312Y-55100003D02*
X112500000Y-55100000D01*
X105000000Y-55100000D02*
G75*
G03*
X92275963Y-28104047I-35000000J0D01*
G01*
X48272125Y-24069378D02*
X47409169Y-22836950D01*
X96950698Y-22237997D02*
G75*
G03*
X92590830Y-22836950I-1902398J-2319703D01*
G01*
X104999165Y-55100003D02*
X104999165Y-55341751D01*
X27500343Y-54929289D02*
X27500343Y-55270710D01*
X27500343Y-55270710D02*
X27518144Y-56341751D01*
X27518144Y-56341751D02*
X27500343Y-56341751D01*
X27500340Y-98600000D02*
G75*
G03*
X31500343Y-102600000I4000000J0D01*
G01*
X104999165Y-55100003D02*
X104999165Y-55341751D01*
X105000000Y-55100000D02*
G75*
G03*
X92275963Y-28104047I-35000000J0D01*
G01*
X27500343Y-56341751D02*
X27500343Y-98600000D01*
X112481855Y-56341751D02*
X112499312Y-55341751D01*
X47724038Y-28104048D02*
G75*
G03*
X104999164Y-55341751I22275962J-26995952D01*
G01*
X112500000Y-56341751D02*
X112481855Y-56341751D01*
X27500340Y-98600000D02*
G75*
G03*
X31500343Y-102600000I4000000J0D01*
G01*
X112500000Y-55100000D02*
G75*
G03*
X96950688Y-22238009I-42500000J0D01*
G01*
X43049313Y-22238010D02*
G75*
G03*
X27500344Y-54929289I26950687J-32861990D01*
G01*
X47724038Y-28104048D02*
G75*
G03*
X104999164Y-55341751I22275962J-26995952D01*
G01*
X91727862Y-24069369D02*
G75*
G03*
X92275963Y-28104047I2457438J-1720731D01*
G01*
X96950698Y-22237997D02*
G75*
G03*
X92590830Y-22836950I-1902398J-2319703D01*
G01*
X27518144Y-56341751D02*
X27500343Y-56341751D01*
X112500000Y-55100000D02*
G75*
G03*
X96950688Y-22238009I-42500000J0D01*
G01*
X112499312Y-55341751D02*
X112499312Y-55100003D01*
X27500343Y-55270710D02*
X27518144Y-56341751D01*
X47409156Y-22836959D02*
G75*
G03*
X43049312Y-22238010I-2457456J-1720741D01*
G01*
X112499312Y-55341751D02*
X112499312Y-55100003D01*
X112499312Y-55100003D02*
X112500000Y-55100000D01*
X27500343Y-56341751D02*
X27500343Y-98600000D01*
X105000000Y-55100000D02*
X104999165Y-55100003D01*
X105000000Y-55100000D02*
X104999165Y-55100003D01*
X92590830Y-22836950D02*
X91727875Y-24069378D01*
X48272125Y-24069378D02*
X47409169Y-22836950D01*
X43049313Y-22238010D02*
G75*
G03*
X27500344Y-54929289I26950687J-32861990D01*
G01*
X112500000Y-98600000D02*
X112500000Y-56341751D01*
X47724027Y-28104034D02*
G75*
G03*
X48272125Y-24069378I-1909327J2313934D01*
G01*
X108500000Y-102600000D02*
G75*
G03*
X112500000Y-98600000I0J4000000D01*
G01*
X92590830Y-22836950D02*
X91727875Y-24069378D01*
X108500000Y-102600000D02*
G75*
G03*
X112500000Y-98600000I0J4000000D01*
G01*
X31500343Y-102600000D02*
X108500000Y-102600000D01*
X47409156Y-22836959D02*
G75*
G03*
X43049312Y-22238010I-2457456J-1720741D01*
G01*
X31500343Y-102600000D02*
X108500000Y-102600000D01*
X47724027Y-28104034D02*
G75*
G03*
X48272125Y-24069378I-1909327J2313934D01*
G01*
X91727862Y-24069369D02*
G75*
G03*
X92275963Y-28104047I2457438J-1720731D01*
G01*
M02*
